<?xml version="1.0" encoding="UTF-8"?>
<svg version="1.1" xmlns="http://www.w3.org/2000/svg" width="1024" height="1024">
<path d="M0 0 C3.76738305 1.45557981 4.77702884 2.56057254 6.61735535 6.18745422 C8.09338626 9.8231359 8.3744283 12.99535888 8.37231445 16.93823242 C8.37596512 17.59297546 8.37961578 18.24771851 8.38337708 18.92230225 C8.3914204 21.06696288 8.37791798 23.21085246 8.36328125 25.35546875 C8.36276158 26.86371358 8.36328341 28.37195908 8.36479187 29.88020325 C8.3647024 33.03653117 8.35433139 36.19260236 8.33618164 39.34887695 C8.31359323 43.36191522 8.31293553 47.3745758 8.31969929 51.38766003 C8.32306968 54.5029679 8.3163504 57.61819233 8.30657005 60.73348427 C8.30276305 62.21121087 8.3015508 63.68894684 8.3031559 65.16667747 C8.30581961 79.84197707 7.19712632 90.96990165 -1.1875 103.1875 C-5.29683583 107.29683583 -10.50597307 111.15535697 -16.24609375 112.54296875 C-16.82488281 112.69378906 -17.40367187 112.84460938 -18 113 C-18.33 113.66 -18.66 114.32 -19 115 C-22.77068832 115.086985 -26.54111932 115.14038579 -30.3125 115.1875 C-31.38435547 115.21263672 -32.45621094 115.23777344 -33.56054688 115.26367188 C-35.10258789 115.27817383 -35.10258789 115.27817383 -36.67578125 115.29296875 C-38.0975769 115.31653442 -38.0975769 115.31653442 -39.5480957 115.34057617 C-42.45071378 114.93739463 -43.16045973 114.19899462 -45 112 C-46.5669509 111.09598987 -48.15229361 110.22347141 -49.75 109.375 C-56.65294196 105.30377583 -62.08504913 99.158754 -64.51171875 91.40234375 C-67.08525259 78.74055727 -66.08022469 65.22285365 -65.96362305 52.359375 C-65.39457427 40.3013806 -65.39457427 40.3013806 -68.625 29 C-71.79828184 26.32776266 -73.87794033 26 -78 26 C-80.91078244 26.82979708 -80.91078244 26.82979708 -83 29 C-84.64758273 33.70002198 -85.24736393 37.82173975 -85.23377991 42.78382874 C-85.23478319 43.42921661 -85.23578647 44.07460449 -85.23682016 44.73954958 C-85.23776582 46.8825641 -85.22447786 49.02524314 -85.21118164 51.16821289 C-85.20897817 52.71301169 -85.20767447 54.257812 -85.2071991 55.8026123 C-85.20427282 59.12123376 -85.19504909 62.43975607 -85.18089485 65.75834846 C-85.15854068 71.01772554 -85.15052313 76.27706632 -85.14439392 81.53648376 C-85.13302217 89.8671439 -85.11231015 98.19774987 -85.08749622 106.52837986 C-85.04321097 121.41596905 -85.00985637 136.30357575 -84.98725218 151.19121355 C-84.97890249 156.40663129 -84.96493548 161.62199365 -84.94627964 166.83738434 C-84.93553726 170.10049105 -84.92901754 173.36359734 -84.92347908 176.62671661 C-84.92004668 178.12536323 -84.91487589 179.62400719 -84.90771103 181.12264061 C-84.8741179 188.31566023 -84.93513621 195.50521916 -85.25511169 202.69212341 C-85.30077994 203.7884481 -85.34644819 204.88477278 -85.39350033 206.01431942 C-86.12664672 209.6234573 -87.47298377 211.36378696 -90 214 C-93.47263273 215.73631636 -97.21193013 215.60190402 -101 215 C-103.75569447 212.81840855 -105.43588747 211.12822506 -107 208 C-107.10340945 205.66395871 -107.13956531 203.32487362 -107.14717102 200.98655701 C-107.15268605 199.89095973 -107.15268605 199.89095973 -107.1583125 198.77322918 C-107.16937147 196.31292377 -107.17319697 193.85266056 -107.17700195 191.39233398 C-107.18326511 189.6332638 -107.18991178 187.87419495 -107.19691467 186.11512756 C-107.2143422 181.32554286 -107.22488199 176.53596816 -107.2331202 171.74635959 C-107.23826843 168.75354828 -107.24434435 165.76074009 -107.25063133 162.76793098 C-107.26969141 153.40321877 -107.28391877 144.03851447 -107.2922433 134.67378658 C-107.30200878 123.8662972 -107.32830689 113.05901301 -107.36874419 102.25159591 C-107.39892556 93.89819142 -107.41371424 85.54484566 -107.41702431 77.19138771 C-107.4193732 72.20273467 -107.42831209 67.21430062 -107.45348549 62.2257061 C-107.47680542 57.52824493 -107.48098366 52.8311463 -107.47072411 48.1336422 C-107.47022953 46.41358483 -107.47652685 44.69350938 -107.49028015 42.97350693 C-107.61575053 26.34544935 -107.61575053 26.34544935 -103 19 C-102.51917969 18.19046875 -102.03835938 17.3809375 -101.54296875 16.546875 C-96.9059415 10.39980718 -92.09706963 5.82435184 -84.28515625 4.2890625 C-74.42802395 3.04217739 -66.77522557 4.12487468 -58 9 C-55 11.5 -55 11.5 -53 14 C-51.9790625 15.051875 -51.9790625 15.051875 -50.9375 16.125 C-45.47408502 24.23200287 -44.42240664 32.67596196 -44.49609375 42.23828125 C-44.48667252 43.36268112 -44.47725128 44.48708099 -44.46754456 45.64555359 C-44.43910773 49.2013923 -44.4358098 52.75655728 -44.4375 56.3125 C-44.43388704 59.88619589 -44.4243376 63.45940966 -44.39674377 67.03300476 C-44.38000815 69.24665732 -44.37703791 71.46046926 -44.38975525 73.67414856 C-44.35137738 79.27813154 -44.01472164 83.09740176 -41 88 C-41 88.66 -41 89.32 -41 90 C-34.86475058 92.5170254 -28.36845313 93.00001007 -22 91 C-17.60764068 88.17634044 -16.30482989 85.99423875 -15 81 C-14.82780977 78.54510074 -14.75712773 76.08202213 -14.76049805 73.62109375 C-14.75848389 72.90809113 -14.75646973 72.1950885 -14.75439453 71.46047974 C-14.75086585 69.92182807 -14.75159525 68.38316185 -14.75617027 66.84451294 C-14.76179169 64.40585747 -14.75255978 61.96767261 -14.7389679 59.52905273 C-14.70195167 52.59909871 -14.68330751 45.66930809 -14.69458008 38.73925781 C-14.70044052 34.4916046 -14.68213075 30.24461807 -14.64869118 25.99710083 C-14.64075487 24.38324853 -14.64199018 22.76932323 -14.65271568 21.15548706 C-14.66709137 18.89589203 -14.65072747 16.63838675 -14.62768555 14.37890625 C-14.62705612 13.0957251 -14.6264267 11.81254395 -14.6257782 10.49047852 C-13.80263962 5.89915919 -12.26008271 4.27968619 -9 1 C-5.93570224 -0.53214888 -3.3834358 -0.22938548 0 0 Z " fill="#FE9509" transform="translate(514,373)"/>
<path d="M0 0 C1.23820999 -0.00287018 2.47641998 -0.00574036 3.75215149 -0.00869751 C6.35666362 -0.01073034 8.96119129 -0.00525549 11.56567383 0.00732422 C14.22845593 0.01809084 16.88942108 0.02098098 19.55200195 0.00732422 C23.4098533 -0.01121971 27.26712428 -0.00896336 31.125 0 C32.31260422 -0.00607269 33.50020844 -0.01214539 34.72380066 -0.0184021 C45.16527813 0.07041807 45.16527813 0.07041807 49.86328125 3.3984375 C52.26743594 6.81078609 52.86328125 8.78033441 52.86328125 12.9609375 C51.63214785 17.19295855 50.43271958 18.81629063 46.86328125 21.3984375 C40.80399102 22.47539468 34.87708942 22.50412391 28.73828125 22.42578125 C26.79557467 22.41313902 24.85286625 22.40077777 22.91015625 22.38867188 C19.88210134 22.36386383 16.85414523 22.33583689 13.82617188 22.30249023 C10.88020225 22.27214159 7.93435804 22.25447451 4.98828125 22.23828125 C4.09222168 22.22482162 3.19616211 22.211362 2.27294922 22.19749451 C-7.02662521 22.13119674 -7.02662521 22.13119674 -15.13671875 26.0859375 C-16.81197391 29.95996506 -16.28291163 33.59539199 -15.94921875 37.7109375 C-15.24335972 39.60839174 -15.24335972 39.60839174 -13.0456543 40.48461914 C-9.51618397 41.59337344 -6.48101608 41.67175146 -2.78125 41.70703125 C-1.33918898 41.73220929 0.10286822 41.75760703 1.54492188 41.78320312 C3.79141069 41.81178192 6.03783268 41.83582852 8.28442383 41.85473633 C21.97996439 41.99219019 33.19299081 43.34607422 43.6171875 53.02734375 C49.28673866 59.15159575 52.39068019 66.38750248 52.9765625 74.70703125 C52.76269455 79.78823886 51.30007633 84.54747591 49.86328125 89.3984375 C49.70601562 90.12675781 49.54875 90.85507812 49.38671875 91.60546875 C48.50014246 94.64232334 46.17514495 96.38523562 43.86328125 98.3984375 C43.22132813 98.97078125 42.579375 99.543125 41.91796875 100.1328125 C41.19867188 100.73609375 40.479375 101.339375 39.73828125 101.9609375 C39.07570313 102.51910156 38.413125 103.07726562 37.73046875 103.65234375 C27.80851451 109.69473278 17.98914219 109.97179152 6.73706055 109.90014648 C5.0309047 109.90393613 3.32475194 109.90944146 1.61860657 109.91651917 C-2.98443652 109.93040166 -7.58710285 109.91935739 -12.19012475 109.90280795 C-17.01861334 109.88889474 -21.84708145 109.89542422 -26.67558289 109.89894104 C-34.77637769 109.90163692 -42.87702378 109.88821672 -50.9777832 109.86499023 C-60.33751709 109.83833949 -69.69700317 109.83664997 -79.05676204 109.8483786 C-88.07657683 109.85916056 -97.09630216 109.85296892 -106.11610985 109.83882332 C-109.9489167 109.83307167 -113.78165791 109.83313962 -117.61446571 109.83788872 C-122.12490098 109.84266443 -126.635065 109.83253227 -131.14544868 109.81093407 C-132.79902481 109.80537579 -134.45262706 109.8048921 -136.10620499 109.80988693 C-138.36560281 109.81585548 -140.62417557 109.80330588 -142.88349915 109.78611755 C-144.14681722 109.78368766 -145.41013529 109.78125776 -146.71173573 109.77875423 C-150.51465874 109.35647031 -152.90972004 108.43399622 -156.13671875 106.3984375 C-158.22962091 102.82024993 -159.15726776 100.42588798 -159.07421875 96.2734375 C-157.89956602 92.67116913 -157.01047393 90.92173473 -154.13671875 88.3984375 C-145.81921175 85.5102995 -136.70400773 86.13521323 -128.02612305 86.18725586 C-126.41701858 86.18946076 -124.80791267 86.19076333 -123.19880676 86.1912384 C-119.75253414 86.19415685 -116.30635762 86.20335226 -112.86011314 86.21754265 C-107.40973925 86.23991644 -101.95940034 86.24791612 -96.50898743 86.25404358 C-87.89146165 86.26539535 -79.27398858 86.28610376 -70.65649205 86.31094128 C-55.21163747 86.35537492 -39.76676412 86.38846763 -24.32186252 86.41118532 C-18.90406886 86.4195865 -13.48632712 86.43360392 -8.06855905 86.45215786 C-4.70209651 86.46280221 -1.33563446 86.46938477 2.03083992 86.47495842 C3.59132122 86.47842757 5.15179976 86.48364018 6.71226883 86.49072647 C8.84260685 86.50018784 10.97286943 86.50345546 13.10322571 86.50523376 C14.29502095 86.50875319 15.4868162 86.51227262 16.71472645 86.5158987 C22.36830333 86.39463754 22.36830333 86.39463754 26.86328125 83.3984375 C27.65412109 82.72941406 27.65412109 82.72941406 28.4609375 82.046875 C30.71256426 79.40011597 30.33166655 76.97161606 30.22265625 73.625 C29.690699 70.32917791 28.29164784 68.61865839 25.86328125 66.3984375 C22.2159437 65.18265832 18.84489289 65.24401185 15.046875 65.22265625 C13.46157559 65.19943604 11.87628912 65.17531785 10.29101562 65.15039062 C7.80517178 65.11547503 5.31979792 65.086041 2.83374023 65.07250977 C-10.89423687 64.98326899 -20.57923227 63.7721982 -30.93359375 53.90625 C-37.28141327 46.68054055 -39.54060775 38.54480414 -39.4140625 29.08203125 C-38.52673702 20.49621993 -33.78204071 12.686427 -27.51171875 6.8984375 C-19.215384 0.4457327 -10.17698888 -0.05230646 0 0 Z " fill="#FE9509" transform="translate(342.13671875,372.6015625)"/>
<path d="M0 0 C0.68359589 -0.0065712 1.36719177 -0.0131424 2.07150269 -0.01991272 C4.32053761 -0.03953029 6.56950627 -0.0512796 8.81860352 -0.0612793 C9.97546 -0.06739259 9.97546 -0.06739259 11.15568733 -0.07362938 C15.23448539 -0.09443645 19.3132503 -0.10876374 23.39208984 -0.11816406 C27.59647468 -0.12924428 31.80033261 -0.16367757 36.00453091 -0.20333576 C39.24653592 -0.22950798 42.48841507 -0.23785618 45.73051643 -0.24144554 C47.28022908 -0.24630644 48.82993629 -0.25790637 50.37954521 -0.27648354 C52.55032939 -0.30089968 54.71974482 -0.29990697 56.890625 -0.29296875 C58.73997902 -0.30176811 58.73997902 -0.30176811 60.62669373 -0.31074524 C65.21942042 0.35135358 68.56079502 2.26667342 71.38500977 5.98950195 C72.65083886 10.4199038 72.68355054 13.85920479 70.57250977 17.98950195 C63.7240337 23.83576201 52.97787017 22.40860416 44.52563477 22.30200195 C43.13800749 22.29317236 41.75037211 22.28554412 40.36273193 22.27905273 C35.99503891 22.25637449 31.6275657 22.21784606 27.26000977 22.17700195 C22.18049399 22.12966646 17.1011006 22.08897341 12.02141571 22.06512451 C9.99776999 22.05222277 7.97450893 22.027222 5.95098877 22.00170898 C4.71910828 21.99510254 3.48722778 21.98849609 2.21801758 21.98168945 C1.13707825 21.97121582 0.05613892 21.96074219 -1.05755615 21.94995117 C-4.81005637 22.24049755 -7.62348198 23.32882442 -10.80249023 25.30200195 C-12.77204279 28.41182177 -12.61877277 31.67085587 -11.98999023 35.17700195 C-9.86550753 38.62012909 -8.84146382 39.89317742 -4.98999023 41.17700195 C-3.48842514 41.28127944 -1.98285868 41.33271635 -0.4777832 41.35058594 C0.43391632 41.36407578 1.34561584 41.37756561 2.28494263 41.39146423 C3.76146805 41.40712181 3.76146805 41.40712181 5.26782227 41.4230957 C7.358972 41.45605221 9.45011773 41.48926353 11.54125977 41.52270508 C14.83257115 41.5699687 18.12386845 41.61436845 21.4152832 41.65380859 C24.59547285 41.69378839 27.77532326 41.74528713 30.95532227 41.7980957 C31.92752716 41.80650986 32.89973206 41.81492401 33.90139771 41.82359314 C44.93186294 42.02084923 55.07155392 44.11160662 63.56469727 51.63012695 C71.37327367 59.98741413 73.49879883 68.22122545 73.32250977 79.48168945 C72.901538 84.45968061 71.65973602 87.9836657 69.01000977 92.17700195 C68.5859082 92.8730957 68.16180664 93.56918945 67.72485352 94.28637695 C61.95256799 102.84029311 53.9255052 107.05092352 44.01000977 109.17700195 C38.75054972 109.68114721 33.49977257 109.78695019 28.22094727 109.86450195 C26.70739793 109.89412084 25.19385832 109.92424078 23.68032837 109.95483398 C20.52532613 110.0148854 17.37038495 110.06363528 14.21508789 110.10522461 C10.18863423 110.15995706 6.16391888 110.25122056 2.13838768 110.35194397 C-0.98081003 110.42452781 -4.10005943 110.47353772 -7.21979904 110.51602173 C-8.70378294 110.53978672 -10.18766159 110.57167547 -11.67128372 110.6121521 C-25.54427692 110.97253117 -25.54427692 110.97253117 -31.59042358 106.64819336 C-34.25638498 103.84579771 -34.95340079 101.57948585 -35.30249023 97.73950195 C-34.95967898 93.83145362 -34.53970332 92.13795909 -31.98999023 89.17700195 C-25.16316998 85.05081333 -17.85814888 85.83268151 -10.11499023 85.9543457 C-8.66203898 85.9650392 -7.2090748 85.97409051 -5.75610352 85.98158264 C-1.94463501 86.00427809 1.86646188 86.04327996 5.67773438 86.08758545 C11.77653995 86.15797102 17.87532637 86.21323125 23.97442627 86.24994087 C26.09440352 86.26652799 28.21392485 86.29608879 30.33374023 86.3266449 C31.6319873 86.33647903 32.93023437 86.34631317 34.26782227 86.35644531 C35.97156006 86.37668007 35.97156006 86.37668007 37.7097168 86.39732361 C42.15648848 86.10046509 46.41624451 85.46229651 49.94750977 82.61450195 C51.96749275 77.98042335 51.58554737 72.90361478 50.01000977 68.17700195 C49.35000977 68.17700195 48.69000977 68.17700195 48.01000977 68.17700195 C48.01000977 67.51700195 48.01000977 66.85700195 48.01000977 66.17700195 C43.18956122 65.39150464 38.6023988 65.06846862 33.72094727 65.11450195 C32.72147568 65.12018188 32.72147568 65.12018188 31.70181274 65.12597656 C29.596142 65.13807298 27.49061635 65.15669996 25.38500977 65.17700195 C22.60115906 65.20370861 19.81737853 65.22363549 17.03344727 65.23950195 C15.8054541 65.25110352 14.57746094 65.26270508 13.31225586 65.2746582 C10.4001386 65.18853911 7.83418172 64.85678369 5.01000977 64.17700195 C5.01000977 64.83700195 5.01000977 65.49700195 5.01000977 66.17700195 C-20.18349456 62.35892782 -20.18349456 62.35892782 -27.98999023 53.17700195 C-34.34350294 44.20899066 -35.25021165 35.76286186 -33.98999023 25.17700195 C-32.09789402 16.78981525 -27.44329395 10.10966538 -20.26733398 5.3840332 C-13.29793451 1.4350195 -8.02151446 0.06408977 0 0 Z " fill="#FE9509" transform="translate(95.989990234375,372.822998046875)"/>
<path d="M0 0 C1.10874256 -0.00807831 1.10874256 -0.00807831 2.23988396 -0.01631981 C4.71185586 -0.03060503 7.18329268 -0.02349447 9.6552887 -0.01637268 C11.42952403 -0.02207596 13.20375569 -0.02904006 14.97798157 -0.03717041 C19.79410332 -0.05512157 24.61004306 -0.05392975 29.42618823 -0.04822803 C33.44714804 -0.045139 37.46807274 -0.05122544 41.48902756 -0.05726677 C50.9749789 -0.07131682 60.4608402 -0.06974671 69.9467926 -0.05836487 C79.73245832 -0.04688286 89.51785001 -0.06095964 99.30347961 -0.08776134 C107.70617206 -0.10991355 116.10877846 -0.11655681 124.51149803 -0.11068493 C129.52960748 -0.10731304 134.54754125 -0.10974586 139.56562614 -0.12693596 C144.2844921 -0.14239535 149.0029519 -0.13846073 153.72180176 -0.11963081 C155.45278406 -0.11594215 157.18379639 -0.1190615 158.91475105 -0.1295166 C161.27973622 -0.14270976 163.64337343 -0.13119525 166.00830078 -0.11352539 C167.03336177 -0.1279329 167.03336177 -0.1279329 168.07913107 -0.14263147 C172.98724679 -0.06729071 175.78177356 1.33107192 179.56764221 4.38768005 C181.48067685 7.46517055 181.57017619 9.24577713 181.50514221 12.88768005 C180.35883009 17.16724531 179.11942447 18.76244969 175.56764221 21.38768005 C168.71225076 22.84647684 161.61134917 22.72686929 154.63014221 22.95018005 C153.37395081 22.99336365 152.1177594 23.03654724 150.82350159 23.08103943 C147.73831254 23.18661624 144.65304958 23.28872556 141.56764221 23.38768005 C141.57287903 24.37010681 141.57811584 25.35253357 141.58351135 26.36473083 C141.67104621 44.56322718 141.67994041 62.76407859 141.30418396 80.9596405 C141.27164508 82.61209729 141.24402955 84.2646588 141.22148132 85.9172821 C141.18833754 88.23218016 141.13641403 90.54591977 141.07936096 92.8603363 C141.05317688 94.1726825 141.0269928 95.48502869 141.00001526 96.83714294 C140.40825548 101.69652319 139.09444438 105.14973235 135.25514221 108.26268005 C131.99828612 109.62601516 130.07094053 109.88815124 126.56764221 109.38768005 C122.87329092 107.61154963 121.0132686 106.44579692 119.40577698 102.62889099 C117.87599081 96.59560716 118.34471231 90.26702145 118.40748596 84.09080505 C118.41377037 82.69227008 118.41900579 81.29373004 118.42324829 79.89518738 C118.43649793 76.22345192 118.46088771 72.55188549 118.48860168 68.88023376 C118.53182773 63.01967557 118.56169763 57.15907785 118.58464241 51.29840851 C118.59471876 49.2696053 118.61178719 47.24095156 118.62963867 45.21220398 C118.6677433 37.87296544 118.41029078 30.68075533 117.56764221 23.38768005 C105.99442117 22.09620689 94.41618458 22.28545447 82.78923035 22.34308052 C79.13227435 22.36062594 75.47536291 22.37081713 71.81837463 22.3789978 C61.43055526 22.40332862 51.04279688 22.43920575 40.65504456 22.48362732 C34.27937714 22.51038381 27.90374342 22.52743929 21.5280304 22.53849602 C19.10390465 22.5447029 16.67978554 22.55470458 14.25569153 22.56857491 C10.87655811 22.5877591 7.49760393 22.59468186 4.11842346 22.59886169 C2.61912544 22.61200409 2.61912544 22.61200409 1.08953857 22.62541199 C-4.90344953 22.61693543 -9.20672387 22.49300944 -13.74485779 18.20018005 C-15.9012408 14.60620837 -15.94901729 12.52095606 -15.43235779 8.38768005 C-12.37830781 1.31514326 -7.23164467 -0.06339296 0 0 Z " fill="#FE9609" transform="translate(554.4323577880859,372.61231994628906)"/>
<path d="M0 0 C1.78255029 1.66559563 3.21634075 3.33770203 4.6640625 5.30078125 C5.2415625 6.07808594 5.8190625 6.85539062 6.4140625 7.65625 C12.9504186 17.19313164 16.76029633 27.70344231 19.6640625 38.80078125 C22.43203193 49.22427161 27.27708309 58.88786364 31.8515625 68.61328125 C32.15882263 69.27237991 32.46608276 69.93147858 32.78265381 70.61054993 C33.62995159 72.42475705 34.48703897 74.23438279 35.34472656 76.04370117 C36.61361087 79.17622995 37.11371876 81.98799382 37.6640625 85.30078125 C38.3240625 85.63078125 38.9840625 85.96078125 39.6640625 86.30078125 C40.02395264 85.88030518 40.38384277 85.4598291 40.75463867 85.02661133 C43.44337577 81.8872237 46.13639348 78.75173046 48.83984375 75.625 C49.35740234 75.02494141 49.87496094 74.42488281 50.40820312 73.80664062 C51.47176833 72.57354074 52.53692528 71.3418123 53.60351562 70.11132812 C56.42790179 66.91080407 56.42790179 66.91080407 58.6640625 63.30078125 C57.98601562 63.33558594 57.30796875 63.37039063 56.609375 63.40625 C49.71412711 63.6068043 44.11139607 62.72279545 37.6640625 60.30078125 C36.0553125 59.74390625 36.0553125 59.74390625 34.4140625 59.17578125 C30.36865824 56.41755107 27.73704084 52.72607544 25.6640625 48.30078125 C25.5 45.51171875 25.5 45.51171875 25.6640625 43.30078125 C29.24957062 43.63692264 31.54692385 44.77363206 34.4765625 46.73828125 C40.46116061 50.63051987 46.50719839 51.88740946 53.6640625 51.30078125 C56.98879871 50.55096466 60.28537719 49.73926604 63.578125 48.859375 C67.65158459 48.12202725 70.31522937 48.55142951 73.9140625 50.55078125 C76.22493738 52.86165613 76.58971477 54.02948092 76.6640625 57.30078125 C74.81147076 62.38491651 72.62461774 65.9302384 69.0390625 70.05078125 C68.14420301 71.09607325 67.24967888 72.14165244 66.35546875 73.1875 C65.90574707 73.70747559 65.45602539 74.22745117 64.99267578 74.76318359 C53.1751969 88.43949414 46.18221101 100.04349172 42.5234375 117.78125 C37.4799087 142.21533493 28.25085808 167.53535235 8.6640625 184.30078125 C5.62105934 185.82228283 3.0099775 185.53977518 -0.3359375 185.30078125 C-2.75369079 181.67415132 -3.14238107 180.5749322 -2.3359375 176.30078125 C-0.8984375 174.66015625 -0.8984375 174.66015625 1.0390625 172.86328125 C15.84636621 159.10614092 25.08291634 138.11647079 26.046875 118.09765625 C26.60078174 97.85110272 22.2885716 82.40523924 14.95385742 63.70239258 C11.10794706 53.84358276 7.99972886 43.90624348 5.21386719 33.69189453 C4.91899414 32.63212402 4.62412109 31.57235352 4.3203125 30.48046875 C3.94616211 29.08417236 3.94616211 29.08417236 3.56445312 27.65966797 C2.61230202 25.16517665 1.563959 24.10936184 -0.3359375 22.30078125 C-0.4184375 21.41390625 -0.5009375 20.52703125 -0.5859375 19.61328125 C-2.00953828 13.32571115 -6.99844385 8.96693425 -12.2109375 5.42578125 C-20.11879615 0.93959221 -26.68718769 0.95352138 -35.3359375 3.30078125 C-35.72011538 14.44193982 -27.66468857 22.19211492 -21.0390625 30.39453125 C-20.49548096 31.06790527 -19.95189941 31.7412793 -19.3918457 32.43505859 C-18.33142751 33.73942577 -17.26251411 35.03694265 -16.18432617 36.32666016 C-13.74536126 39.2892105 -12.07201954 41.53200034 -11.3359375 45.30078125 C-15.5640242 46.71014348 -17.80131458 45.35398592 -21.7890625 43.63671875 C-30.07235099 39.29180362 -35.08698157 30.43272022 -40.23486328 22.90136719 C-41.15405004 21.56518351 -42.09932441 20.2469943 -43.05078125 18.93359375 C-46.27975401 14.27264177 -47.56713265 10.00709784 -47.3359375 4.30078125 C-46.3984375 0.73828125 -46.3984375 0.73828125 -45.3359375 -1.69921875 C-44.6759375 -1.69921875 -44.0159375 -1.69921875 -43.3359375 -1.69921875 C-43.1503125 -2.27671875 -42.9646875 -2.85421875 -42.7734375 -3.44921875 C-40.17863696 -7.51064568 -36.00338659 -9.21751124 -31.5234375 -10.51171875 C-19.57299419 -11.214686 -9.62112841 -6.99864692 0 0 Z " fill="#D93D2E" transform="translate(885.3359375,391.69921875)"/>
<path d="M0 0 C2.23342354 0.78622905 4.44253968 1.64423872 6.625 2.5625 C13.32456266 5.23785372 18.67442483 5.21356161 25.69580078 4.34594727 C31.07343591 3.7417932 34.178271 4.49702078 39 7 C38.34 7.33 37.68 7.66 37 8 C37.103125 8.763125 37.20625 9.52625 37.3125 10.3125 C37 13 37 13 35.0625 14.6875 C23.22550734 19.76049685 12.82871224 18.77368873 1.13061523 14.13476562 C-0.58470619 13.43560036 -2.29314155 12.71957897 -4 12 C-4 12.66 -4 13.32 -4 14 C-4.56976562 13.76539063 -5.13953125 13.53078125 -5.7265625 13.2890625 C-8.08790178 12.74192921 -8.08790178 12.74192921 -10.0859375 14.3359375 C-10.84132813 15.00882812 -11.59671875 15.68171875 -12.375 16.375 C-16.31538123 19.69230485 -20.34462897 22.67462763 -24.6875 25.4375 C-25.27273438 25.81181152 -25.85796875 26.18612305 -26.4609375 26.57177734 C-29.58209023 28.54440654 -32.73589212 30.43520602 -35.94921875 32.25390625 C-48.17498925 39.20658568 -56.54114108 46.85132056 -60.54418945 60.91137695 C-61.29803772 64.36567363 -61.22581149 67.85557235 -61.25 71.375 C-61.270625 72.1175 -61.29125 72.86 -61.3125 73.625 C-61.34675614 78.47224325 -60.80266184 81.86912016 -58 86 C-52.76971836 90.20560977 -46.81681843 89.71295377 -40.44042969 89.27636719 C-34.62792895 88.61812881 -28.93283435 87.21562955 -23.2331543 85.9309082 C-13.53913054 83.78153372 -3.89026323 82.7330173 6 82 C6 82.66 6 83.32 6 84 C9.3 84 12.6 84 16 84 C16 84.66 16 85.32 16 86 C16.88751953 86.185625 16.88751953 86.185625 17.79296875 86.375 C23.63341407 87.89942292 26.25704069 89.7692945 29.3203125 94.96484375 C30.14109483 97.4224736 29.87430005 98.59316251 29 101 C28.67 101.66 28.34 102.32 28 103 C22.68894453 101.84122426 18.0689049 100.27286983 13.17578125 97.90234375 C-0.6800479 92.1560304 -17.4898393 97.36394627 -31.37548828 100.42749023 C-41.44368221 102.62376137 -52.62303711 104.02337298 -62 99 C-69.70068437 93.89272793 -73.05673687 86.90662267 -75 78 C-75.07403678 75.66784156 -75.09515886 73.33139212 -75 71 C-75.66 71 -76.32 71 -77 71 C-76 69 -76 69 -75 68 C-74.60803143 65.94065741 -74.2370859 63.8773063 -73.875 61.8125 C-70.408975 45.36981136 -61.83675561 33.74443443 -47.9230957 24.66357422 C-43.59348191 21.91425608 -39.16941014 19.36584131 -34.6875 16.875 C-27.72331095 12.97883987 -21.47252552 8.51040761 -15.8515625 2.828125 C-11.5188359 -1.44975696 -5.72142174 -0.61347073 0 0 Z " fill="#63B652" transform="translate(807,367)"/>
<path d="M0 0 C17.08127877 12.56055999 27.37675782 28.68765982 31.15234375 49.625 C33.15051055 70.54198016 28.50330607 91.98209114 15.46484375 108.8125 C13.54377998 110.742008 11.69560266 112.23464614 9.46484375 113.8125 C8.9020483 106.77244059 10.97719144 100.53357968 12.90234375 93.8125 C17.76188727 76.6453205 20.57654002 58.09384807 14.46484375 40.8125 C14.18640625 39.94625 13.90796875 39.08 13.62109375 38.1875 C8.78100143 24.5017217 -2.71268664 14.12537556 -15.53515625 7.8125 C-28.34952213 2.48915583 -39.89231557 0.42311494 -53.72265625 0.4375 C-55.00390381 0.43621094 -56.28515137 0.43492187 -57.60522461 0.43359375 C-65.85215125 0.52577915 -73.08910401 1.2685487 -80.8828125 3.9375 C-83.53515625 4.8125 -83.53515625 4.8125 -87.53515625 4.8125 C-87.84765625 2.625 -87.84765625 2.625 -87.53515625 -0.1875 C-67.85260127 -23.92234572 -22.63725099 -14.46373441 0 0 Z " fill="#FBCC32" transform="translate(866.53515625,441.1875)"/>
<path d="M0 0 C0.82004013 -0.00571014 1.64008026 -0.01142029 2.48497009 -0.01730347 C3.38113037 -0.01842133 4.27729065 -0.01953918 5.2006073 -0.02069092 C6.14725754 -0.02565582 7.09390778 -0.03062073 8.06924438 -0.03573608 C11.20573144 -0.05035921 14.34216791 -0.05716007 17.47868347 -0.06268311 C19.65720623 -0.06843454 21.83572898 -0.07419228 24.01425171 -0.07995605 C28.58483618 -0.09046655 33.15540306 -0.09630887 37.72599792 -0.09979248 C43.58042064 -0.10527653 49.4346107 -0.12930259 55.28896046 -0.15776443 C59.79026975 -0.17639544 64.29152307 -0.18159667 68.79286766 -0.18312836 C70.95101379 -0.18615448 73.10915893 -0.19418164 75.26726723 -0.20731354 C78.28819562 -0.22438301 81.30855639 -0.22249141 84.32951355 -0.21600342 C85.21960114 -0.2252182 86.10968872 -0.23443298 87.02674866 -0.243927 C92.07653267 -0.20998248 95.60606119 0.29004144 99.95915222 3.14044189 C102.36330691 6.55279049 102.95915222 8.52233881 102.95915222 12.70294189 C101.71811389 16.96901115 100.58932175 18.56907181 96.95915222 21.14044189 C90.98630739 22.44059406 84.67374683 22.29326207 78.58732605 22.30157471 C77.69832108 22.30653961 76.8093161 22.31150452 75.89337158 22.31661987 C72.98430074 22.33109771 70.07528425 22.33801593 67.16618347 22.34356689 C65.66730371 22.34780796 65.66730371 22.34780796 64.13814354 22.3521347 C58.8598085 22.36706164 53.58150039 22.37633463 48.30314636 22.38067627 C42.8591765 22.38618027 37.41545429 22.41026731 31.97156239 22.43864822 C27.77393873 22.45727353 23.5763751 22.46247994 19.37871361 22.46401215 C17.3712852 22.4670347 15.36385774 22.47504982 13.35647011 22.48819733 C10.55171835 22.50527056 7.74757758 22.50337551 4.9427948 22.49688721 C4.11823792 22.50610199 3.29368103 22.51531677 2.44413757 22.52481079 C-2.43750961 22.48947335 -5.83798595 21.89616916 -10.04084778 19.14044189 C-12.49172191 15.15777143 -13.18701517 13.09865038 -12.47834778 8.45294189 C-11.03313195 5.12266195 -9.87104643 3.37029538 -7.04084778 1.14044189 C-4.33859628 0.23969139 -2.77374666 0.01158635 0 0 Z " fill="#FE9508" transform="translate(196.0408477783203,372.85955810546875)"/>
<path d="M0 0 C0.71647705 -0.00365067 1.4329541 -0.00730133 2.17114258 -0.01106262 C4.52018567 -0.01911305 6.86852661 -0.00560052 9.2175293 0.0090332 C10.86508687 0.00955265 12.51264506 0.00903169 14.16020203 0.00752258 C17.60738422 0.00761207 21.05433144 0.01799041 24.50146484 0.03613281 C28.89583142 0.05876535 33.28985352 0.05937116 37.68426228 0.05261517 C41.08600362 0.04925452 44.48766807 0.05594537 47.88939476 0.0657444 C49.5083291 0.06956469 51.12727204 0.07075794 52.7462101 0.06915855 C74.92304422 0.06549636 74.92304422 0.06549636 80.04174805 4.68481445 C81.54935387 7.50338185 82.40311775 9.17484195 82.47924805 12.37231445 C81.00148562 16.8833787 79.73417618 20.05144456 75.47924805 22.37231445 C71.65816261 23.67170292 67.76481859 23.5272916 63.77661133 23.53344727 C63.00537933 23.53841217 62.23414734 23.54337708 61.43954468 23.54849243 C58.89287417 23.56307538 56.34626592 23.5699092 53.79956055 23.57543945 C52.02603148 23.5811936 50.25250243 23.5869513 48.47897339 23.5927124 C44.76177684 23.60321104 41.04460186 23.60906131 37.32739258 23.61254883 C32.5704371 23.61803458 27.81376769 23.64206908 23.05690193 23.67052078 C19.39369886 23.68916691 15.73056448 23.69435379 12.06731796 23.6958847 C10.31387644 23.69890673 8.56043599 23.70692007 6.80704117 23.72006989 C4.35136524 23.73717371 1.89638558 23.73523989 -0.55932617 23.72875977 C-1.27952942 23.73797455 -1.99973267 23.74718933 -2.74176025 23.75668335 C-8.24965376 23.71128028 -12.28297652 22.38631234 -16.39575195 18.68481445 C-18.0573735 15.26925906 -18.04154919 12.05457098 -17.52075195 8.37231445 C-16.0894737 4.58363672 -14.99381714 3.61454082 -11.3697052 1.75886536 C-7.5431137 0.20257449 -4.14459363 -0.00202751 0 0 Z " fill="#FD9409" transform="translate(555.520751953125,458.627685546875)"/>
<path d="M0 0 C0.77254623 -0.0065712 1.54509247 -0.0131424 2.34104919 -0.01991272 C4.90339246 -0.03965944 7.46567708 -0.05131135 10.02807617 -0.0612793 C10.90260626 -0.06535482 11.77713634 -0.06943035 12.67816734 -0.07362938 C17.30692688 -0.09449601 21.93565671 -0.10879513 26.56445312 -0.11816406 C31.34631134 -0.12922965 36.12770435 -0.1636294 40.90939808 -0.20333576 C44.58543261 -0.22947729 48.26135589 -0.2378537 51.9374752 -0.24144554 C53.70013254 -0.24631791 55.4627847 -0.25795043 57.22535133 -0.27648354 C59.69357819 -0.30082315 62.16059621 -0.29991985 64.62890625 -0.29296875 C65.71931717 -0.31218384 65.71931717 -0.31218384 66.83175659 -0.33178711 C70.38041468 -0.29539562 72.37968411 0.09610009 75.41117859 1.99934387 C78.2464738 4.94318035 78.89442879 7.15112955 79.50854492 11.17700195 C78.86822901 15.01889743 78.39280025 17.32127099 75.57104492 20.05200195 C71.45426803 22.29751662 67.7557661 22.33084907 63.19482422 22.33813477 C62.08208633 22.34558212 62.08208633 22.34558212 60.9468689 22.35317993 C58.49215772 22.36778725 56.03751118 22.37460145 53.58276367 22.38012695 C51.87506611 22.38587995 50.16736856 22.39163767 48.45967102 22.3973999 C44.87773335 22.40790608 41.2958181 22.41375113 37.71386719 22.41723633 C33.13063341 22.42271769 28.54769722 22.44673959 23.96455669 22.47520828 C20.43603152 22.49386009 16.90757764 22.49904163 13.37900734 22.5005722 C11.6897602 22.50359395 10.00051418 22.51160633 8.31131554 22.52475739 C5.94413191 22.54186999 3.57767012 22.53992511 1.21044922 22.53344727 C0.1698661 22.54726944 0.1698661 22.54726944 -0.89173889 22.56137085 C-5.47470868 22.52221288 -8.62691568 21.64346972 -12.49145508 19.17700195 C-14.57402406 15.61648079 -15.49145508 13.18093215 -15.49145508 9.05200195 C-12.74381771 1.15254453 -7.43502851 0.02727382 0 0 Z " fill="#FE9509" transform="translate(198.491455078125,414.822998046875)"/>
<path d="M0 0 C0.66 0.33 1.32 0.66 2 1 C2 1.66 2 2.32 2 3 C4.31 3 6.62 3 9 3 C9.15275391 3.98419922 9.15275391 3.98419922 9.30859375 4.98828125 C10.20140604 8.87731108 11.61471319 12.47565679 13.0625 16.1875 C16 23.73627002 16 23.73627002 16 26 C16.66 26.33 17.32 26.66 18 27 C18.7335968 28.76235962 18.7335968 28.76235962 19.4152832 31.02197266 C20.87373855 35.65066769 22.56373927 40.14002274 24.35546875 44.6484375 C24.9838793 46.24603265 25.61213003 47.84369069 26.24023438 49.44140625 C27.21925001 51.92414839 28.19987825 54.40622632 29.18334961 56.88720703 C30.14101091 59.30588836 31.09240277 61.72696056 32.04296875 64.1484375 C32.48820137 65.26404556 32.48820137 65.26404556 32.94242859 66.40219116 C34.12060044 69.41272157 35 71.7366875 35 75 C31.04 75 27.08 75 23 75 C22.18167278 73.10667466 21.37057732 71.21022267 20.5625 69.3125 C19.88380859 67.72888672 19.88380859 67.72888672 19.19140625 66.11328125 C18 63 18 63 17 58 C7.1 58.33 -2.8 58.66 -13 59 C-14.81186378 63.88514031 -14.81186378 63.88514031 -16.58886719 68.78295898 C-18.50059696 73.74620501 -18.50059696 73.74620501 -20.90625 74.96875 C-21.94265625 74.98421875 -21.94265625 74.98421875 -23 75 C-23.77859375 75.03222656 -24.5571875 75.06445312 -25.359375 75.09765625 C-26.54273438 75.08025391 -26.54273438 75.08025391 -27.75 75.0625 C-28.54921875 75.05347656 -29.3484375 75.04445313 -30.171875 75.03515625 C-30.77515625 75.02355469 -31.3784375 75.01195312 -32 75 C-31.39682181 69.7996259 -29.71769887 65.60702863 -27.625 60.875 C-24.07092995 52.65005416 -20.75101499 44.34905684 -17.5 36 C-16.10619203 32.44493642 -14.70982138 28.89089426 -13.31201172 25.33740234 C-12.46997432 23.19548733 -11.63025163 21.05266008 -10.79345703 18.90869141 C-9.73224698 16.20331448 -8.65115669 13.50692531 -7.5625 10.8125 C-7.25699219 10.02294922 -6.95148438 9.23339844 -6.63671875 8.41992188 C-5.75390625 6.26953125 -5.75390625 6.26953125 -4 3 C-1.89038086 2.2956543 -1.89038086 2.2956543 0 2 C0 1.34 0 0.68 0 0 Z M1 18 C-0.42830852 21.80704999 -1.85236055 25.61566157 -3.27246094 29.42578125 C-3.75631411 30.72211806 -4.24133485 32.0180197 -4.72753906 33.31347656 C-5.42558589 35.17398505 -6.11910947 37.03618865 -6.8125 38.8984375 C-7.23144531 40.01911621 -7.65039062 41.13979492 -8.08203125 42.29443359 C-9.10709969 44.83948363 -9.10709969 44.83948363 -9 47 C-1.74 47 5.52 47 13 47 C11.6175888 43.18944219 10.23188953 39.38034848 8.83740234 35.57421875 C8.3640433 34.2790513 7.8926746 32.98315461 7.42333984 31.68652344 C6.74840565 29.82296307 6.06571282 27.96221844 5.3828125 26.1015625 C4.97434082 24.98088379 4.56586914 23.86020508 4.14501953 22.70556641 C3.16250627 19.91210531 3.16250627 19.91210531 1 18 Z " fill="#182C45" transform="translate(486,507)"/>
<path d="M0 0 C1.03936707 -0.0098568 1.03936707 -0.0098568 2.09973145 -0.01991272 C4.39754339 -0.03965523 6.69528989 -0.05131156 8.99316406 -0.0612793 C9.7781855 -0.06535482 10.56320694 -0.06943035 11.37201691 -0.07362938 C15.52860756 -0.09449614 19.68516516 -0.1087941 23.84179688 -0.11816406 C28.13034004 -0.12921805 32.41836282 -0.16360404 36.70672226 -0.20333576 C40.00792386 -0.22951544 43.30900188 -0.23785716 46.61029816 -0.24144554 C48.19071204 -0.24630959 49.77112047 -0.2579185 51.3514328 -0.27648354 C53.5680374 -0.30090072 55.78330135 -0.2999059 58 -0.29296875 C59.88957428 -0.30176811 59.88957428 -0.30176811 61.81732178 -0.31074524 C65.89788805 0.26757923 68.05516193 1.63600276 71.25878906 4.17700195 C73.61121253 7.38485213 73.72720996 10.27349447 73.25878906 14.17700195 C71.12492862 18.13988564 69.49897928 20.61335463 65.25878906 22.17700195 C62.08474731 22.44442749 62.08474731 22.44442749 58.29052734 22.4675293 C57.59732391 22.47424652 56.90412048 22.48096375 56.18991089 22.48788452 C53.90290112 22.50685074 51.61618504 22.51078799 49.32910156 22.51293945 C47.73493327 22.51936845 46.14076616 22.52609689 44.54660034 22.53311157 C41.20600652 22.54508095 37.86551609 22.54879276 34.52490234 22.54760742 C30.25207105 22.54740427 25.97990518 22.57470313 21.70723152 22.60915184 C18.41459124 22.63143055 15.12211085 22.63544467 11.82940292 22.63438797 C10.25458356 22.6367426 8.6797597 22.6455584 7.1050148 22.6610527 C4.89815432 22.68073317 2.69272525 22.67486816 0.48583984 22.6628418 C-1.39468582 22.66711685 -1.39468582 22.66711685 -3.3132019 22.67147827 C-7.39008171 22.08340499 -9.54999844 20.73437963 -12.74121094 18.17700195 C-14.65424557 15.09951146 -14.74374492 13.31890488 -14.67871094 9.67700195 C-13.56398056 5.51534189 -12.0214742 3.89722027 -8.74121094 1.17700195 C-5.82756623 -0.2798204 -3.25435227 0.02549595 0 0 Z " fill="#FE9509" transform="translate(552.7412109375,414.822998046875)"/>
<path d="M0 0 C7.03144607 0 11.74397043 2.38756589 17 7 C27.27713339 18.32535542 28.44228162 34.19823389 27.7578125 48.765625 C27.65188376 50.864626 27.54509543 52.96358378 27.4375 55.0625 C26.71087567 69.97772115 29.2476079 82.02792643 34.27587891 95.97802734 C34.90843296 97.74431618 35.5096554 99.5217626 36.10546875 101.30078125 C36.42128906 102.19152344 36.73710938 103.08226562 37.0625 104 C37.32160156 104.7425 37.58070313 105.485 37.84765625 106.25 C39.52745743 108.8010201 41.073187 109.24953513 44 110 C46.87288424 109.88751775 46.87288424 109.88751775 49.8125 109.25 C51.37677734 108.95222656 51.37677734 108.95222656 52.97265625 108.6484375 C56.67845697 107.8546789 60.34042351 106.98527059 64 106 C64.62890625 107.84375 64.62890625 107.84375 65 110 C61.86771481 113.79670932 58.20607808 116.47635315 54 119 C53.34 119 52.68 119 52 119 C51.67 119.66 51.34 120.32 51 121 C44.46182175 122.72535259 37.89222438 122.42202262 32 119 C25.56344083 113.41189635 23.52804172 104.82565782 21 97 C20.55236128 95.69171865 20.10181677 94.38442809 19.6484375 93.078125 C16.20399024 83.06005876 13.64724487 74.17197889 13.9453125 63.5390625 C13.97060483 61.75000773 13.99532676 59.96094482 14.01953125 58.171875 C14.06902091 55.39849397 14.12498657 52.62555646 14.19189453 49.85253906 C14.48620924 36.79608981 14.62558211 24.10026835 5 14 C2.76822692 12.15250573 0.44629738 10.54777583 -2 9 C-2.99 8.34 -3.98 7.68 -5 7 C-3.47793991 4.37098712 -2.15634036 2.15634036 0 0 Z " fill="#FBCE35" transform="translate(811,472)"/>
<path d="M0 0 C3.91194795 3.10949709 5.55792527 6.4643261 6.4140625 11.375 C7.2334028 21.57123484 7.09336296 31.77890997 7 42 C8.98 42.66 10.96 43.32 13 44 C12.375 47.375 12.375 47.375 11 51 C8.25 52.625 8.25 52.625 5 53 C1.60370482 51.82435936 -0.40262451 51.07925839 -2.171875 47.8828125 C-2.44515625 47.26148438 -2.7184375 46.64015625 -3 46 C-3.59425781 46.433125 -4.18851563 46.86625 -4.80078125 47.3125 C-11.24688952 51.64332235 -16.25357024 53.35475678 -24 52 C-29.21136248 50.35017168 -33.29544787 47.86819384 -36 43 C-37.7920662 36.61576417 -37.02634509 30.87536527 -34 25 C-29.50497538 19.97614896 -23.16093549 18.20322892 -16.59765625 17.78125 C-7.59663409 17.70168295 -7.59663409 17.70168295 -5 19 C-6.09786425 13.59212615 -6.09786425 13.59212615 -10 10 C-10 9.34 -10 8.68 -10 8 C-12.72842061 6.63578969 -14.60953318 7.12192789 -17.625 7.4375 C-18.62789062 7.53933594 -19.63078125 7.64117188 -20.6640625 7.74609375 C-21.43492187 7.82988281 -22.20578125 7.91367187 -23 8 C-23.103125 8.639375 -23.20625 9.27875 -23.3125 9.9375 C-23.539375 10.618125 -23.76625 11.29875 -24 12 C-24.99 12.33 -25.98 12.66 -27 13 C-27.99 12.34 -28.98 11.68 -30 11 C-30 11.66 -30 12.32 -30 13 C-30.66 12.67 -31.32 12.34 -32 12 C-32.99 12 -33.98 12 -35 12 C-35.78226164 6.95875831 -35.78226164 6.95875831 -35 4 C-25.51305795 -5.50761076 -11.29195362 -6.84574688 0 0 Z M-24 30 C-24.96328895 33.53205948 -25.38250933 35.88189582 -24.1875 39.375 C-23.08014273 41.15088244 -23.08014273 41.15088244 -21 42 C-16.71180044 42.43808718 -13.05577552 42.44926618 -9.0625 40.75 C-5.79693269 37.97921562 -5.1123679 36.12367902 -4.6875 31.875 C-4.790625 30.92625 -4.89375 29.9775 -5 29 C-10.23556455 25.50962363 -19.38697233 25.23320474 -24 30 Z " fill="#172D46" transform="translate(731,531)"/>
<path d="M0 0 C3.86645374 3.194027 6.18468034 6.31838613 8 11 C8.1875 14.375 8.1875 14.375 8 17 C7.01 17.33 6.02 17.66 5 18 C5 17.34 5 16.68 5 16 C3.68 16.99 2.36 17.98 1 19 C-1.94273165 16.13680164 -4.54134532 13.27820623 -7 10 C-7.66 9.67 -8.32 9.34 -9 9 C-9 8.67 -9 8.34 -9 8 C-9.94875 8.020625 -10.8975 8.04125 -11.875 8.0625 C-15 8 -15 8 -17 7 C-21.90457272 9.08705222 -24.97765912 10.74008857 -27.1875 15.625 C-28.78454894 22.2588956 -28.57567269 28.62214382 -26 35 C-23.4273894 38.48059082 -21.3475936 40.23076783 -17.125 41 C-12.79332465 41.27021793 -9.7367315 40.2713466 -6 38 C-4.02193589 34.96588893 -4.02193589 34.96588893 -3 32 C0.63 32 4.26 32 8 32 C7.73087505 38.45899884 5.47656132 42.36175701 1 47 C-4.09444228 51.1217564 -10.75003552 53.28236561 -17.29296875 52.84765625 C-24.02772321 51.63053195 -29.49158933 48.57808874 -34.25 43.6875 C-39.77132367 35.20832436 -42.30671693 27.64848995 -40.57421875 17.5078125 C-38.57957933 9.65162534 -34.39224254 2.73262027 -27.3125 -1.5 C-18.19437356 -5.62896292 -8.5672499 -5.30271314 0 0 Z " fill="#162B45" transform="translate(677,531)"/>
<path d="M0 0 C0 3.63 0 7.26 0 11 C-0.99 11 -1.98 11 -3 11 C-5.33564933 11.31669821 -7.6693782 11.64820803 -10 12 C-10.99 15.96 -11.98 19.92 -13 24 C-8.71 24 -4.42 24 0 24 C0.09765625 31.71484375 0.09765625 31.71484375 0 34 C-0.33 34.33 -0.66 34.66 -1 35 C-4.63 35 -8.26 35 -12 35 C-12.33 49.19 -12.66 63.38 -13 78 C-16.3 78 -19.6 78 -23 78 C-25.17782681 75.82217319 -24.26089916 70.74896922 -24.31640625 67.71484375 C-24.33718735 66.78402481 -24.35796844 65.85320587 -24.37937927 64.8941803 C-24.44497931 61.90869818 -24.50380802 58.92312516 -24.5625 55.9375 C-24.6056753 53.91861024 -24.64928925 51.8997298 -24.69335938 49.88085938 C-24.80067129 44.92066703 -24.90190888 39.96038291 -25 35 C-27.64 35.33 -30.28 35.66 -33 36 C-33 32.04 -33 28.08 -33 24 C-31.865625 24.020625 -30.73125 24.04125 -29.5625 24.0625 C-26.18424326 24.41577477 -26.18424326 24.41577477 -25 23 C-24.86715325 21.29365736 -24.76901871 19.58456374 -24.6875 17.875 C-24.22220939 12.43955968 -23.29132308 9.35877922 -20 5 C-13.49705561 -0.25769972 -8.01281375 -0.11959424 0 0 Z " fill="#162B45" transform="translate(560,504)"/>
<path d="M0 0 C0.91297308 4.97063121 0.91297308 9.02936879 0 14 C-0.33 13.34 -0.66 12.68 -1 12 C-8.19139205 12.2377246 -8.19139205 12.2377246 -14 16 C-17.0984264 20.16240714 -17.39294151 23.64367264 -17.2578125 28.671875 C-17.25119598 29.39489807 -17.24457947 30.11792114 -17.23776245 30.862854 C-17.21445891 33.15901305 -17.17073331 35.45418765 -17.125 37.75 C-17.08996405 40.05997308 -17.05921188 42.36989534 -17.03366089 44.67999268 C-17.01664571 46.11461119 -16.9934727 47.54917204 -16.96365356 48.98358154 C-16.93833619 50.65557325 -16.96402733 52.3282036 -17 54 C-17.495 54.495 -17.495 54.495 -18 55 C-20 55 -22 55 -24 55 C-24.99 55.495 -24.99 55.495 -26 56 C-26.99 55.67 -27.98 55.34 -29 55 C-29 37.18 -29 19.36 -29 1 C-25.37 1 -21.74 1 -18 1 C-17.67 2.32 -17.34 3.64 -17 5 C-16.52691406 4.6390625 -16.05382812 4.278125 -15.56640625 3.90625 C-10.25720497 0.18049471 -6.42675047 -0.66945317 0 0 Z " fill="#152A45" transform="translate(600,527)"/>
<path d="M0 0 C2 1 2 1 2.61230469 2.77734375 C5.10869519 17.08914422 3.49866504 32.62733617 -3.71875 45.2578125 C-5 47 -5 47 -8 49 C-11.2644324 49.35482961 -13.6597095 49.09830615 -16.8125 48.1875 C-19.93296346 45.06703654 -20.0077218 42.40898343 -20.18359375 38.0859375 C-19.31955673 23.56276208 -8.90424829 10.82252686 0 0 Z " fill="#60B250" transform="translate(951,513)"/>
<path d="M0 0 C3.63 0 7.26 0 11 0 C12 1 12 1 12.12025452 3.13233948 C12.1169236 4.54131752 12.1169236 4.54131752 12.11352539 5.97875977 C12.11344986 7.03978409 12.11337433 8.10080841 12.11329651 9.19398499 C12.10813522 10.348134 12.10297394 11.50228302 12.09765625 12.69140625 C12.0962413 13.86638168 12.09482635 15.04135712 12.09336853 16.25193787 C12.08774992 20.02215064 12.07519426 23.79230504 12.0625 27.5625 C12.0574874 30.11132727 12.05292408 32.66015547 12.04882812 35.20898438 C12.03777444 41.47267633 12.02101821 47.73633399 12 54 C10.56274129 54.16873478 9.12518162 54.33490737 7.6875 54.5 C6.88699219 54.5928125 6.08648438 54.685625 5.26171875 54.78125 C3 55 3 55 0 55 C0 36.85 0 18.7 0 0 Z " fill="#182C45" transform="translate(613,528)"/>
<path d="M0 0 C13.39975915 10.39164995 19.73787717 25.45550069 22.6875 41.8125 C24.12176423 56.82650004 22.37485829 71.24713314 16 85 C14.93565897 81.80697692 15.03247942 80.19185893 16.375 77.125 C19.566699 69.75724623 19.2496183 61.90217788 19.29516602 54.0168457 C19.30661841 52.64304245 19.32696222 51.26928129 19.35668945 49.89575195 C19.59294631 38.93950498 19.03150663 27.91857997 12 19 C11.855625 18.34 11.71125 17.68 11.5625 17 C10.78180913 14.22421025 9.04695099 12.98492217 7 11 C6.33333333 9.66666667 5.66666667 8.33333333 5 7 C4.01 6.34 3.02 5.68 2 5 C2 4.34 2 3.68 2 3 C1.34 3 0.68 3 0 3 C0 2.01 0 1.02 0 0 Z " fill="#FBC025" transform="translate(875,449)"/>
<path d="M0 0 C2.375 1.625 2.375 1.625 4 4 C4.45319325 7.17235276 4.52990283 9.06487736 2.9375 11.875 C-0.15097604 13.66830867 -2.51143969 13.42841969 -6 13 C-8.8520847 11.02547983 -9.81895125 9.90524375 -10.5 6.5 C-9.33827182 0.69135908 -5.5534724 -0.92557873 0 0 Z " fill="#182C45" transform="translate(622,508)"/>
<path d="M0 0 C7.89126314 3.65143974 14.00821576 9.97288231 17.21484375 18.05078125 C18.37041001 20.9195751 19.71414737 23.70022354 21.03515625 26.49609375 C24.05350545 34.32913764 24.30790604 41.48850716 24.25 49.8125 C24.25773438 50.94365234 24.26546875 52.07480469 24.2734375 53.24023438 C24.27085937 54.32240234 24.26828125 55.40457031 24.265625 56.51953125 C24.26336914 57.50026611 24.26111328 58.48100098 24.25878906 59.49145508 C24 62 24 62 22 65 C21.98541748 64.30551758 21.97083496 63.61103516 21.95581055 62.89550781 C21.88030164 59.67984235 21.78398946 56.46510173 21.6875 53.25 C21.66494141 52.15816406 21.64238281 51.06632812 21.61914062 49.94140625 C20.9789979 30.27156627 14.2148315 16.85335181 1.28515625 2.53125 C0 1 0 1 0 0 Z " fill="#FCC527" transform="translate(863,454)"/>
<path d="M0 0 C0 0.66 0 1.32 0 2 C-22.11 2 -44.22 2 -67 2 C-66.67 1.34 -66.34 0.68 -66 0 C-43.93433192 -0.80909284 -22.06206029 -1.14476628 0 0 Z " fill="#FE8D02" transform="translate(616,434)"/>
<path d="M0 0 C0 0.66 0 1.32 0 2 C-1.53720703 2.14695312 -1.53720703 2.14695312 -3.10546875 2.296875 C-4.46624402 2.44702951 -5.82691614 2.59812087 -7.1875 2.75 C-7.86103516 2.811875 -8.53457031 2.87375 -9.22851562 2.9375 C-13.9809369 3.49388103 -16.51957115 4.77269325 -20 8 C-21.32567199 8.68177416 -22.65753688 9.35191436 -24 10 C-24.66 10.66 -25.32 11.32 -26 12 C-26 10.68 -26 9.36 -26 8 C-18.25939321 0.80983636 -10.13817073 -0.32471009 0 0 Z " fill="#2A3B4C" transform="translate(722,527)"/>
<path d="M0 0 C0.98484375 0.00902344 1.9696875 0.01804687 2.984375 0.02734375 C4.10585938 0.04474609 4.10585938 0.04474609 5.25 0.0625 C5.25 0.7225 5.25 1.3825 5.25 2.0625 C3.96416016 2.06636719 3.96416016 2.06636719 2.65234375 2.0703125 C-4.2547649 2.30392384 -8.45338901 2.62613243 -13.31640625 7.6953125 C-15.27345754 9.56171019 -17.0947109 9.90157339 -19.75 10.0625 C-17.36185301 5.00524754 -14.62116772 3.45535432 -9.75 1.0625 C-6.46389514 -0.00531185 -3.44265308 -0.04098397 0 0 Z " fill="#213247" transform="translate(662.75,526.9375)"/>
<path d="M0 0 C0.66 0 1.32 0 2 0 C2.88563089 3.79074537 3.11681301 7.28695898 3.09765625 11.17578125 C3.09443359 12.33271484 3.09121094 13.48964844 3.08789062 14.68164062 C3.07951172 15.87982422 3.07113281 17.07800781 3.0625 18.3125 C3.05798828 19.53001953 3.05347656 20.74753906 3.04882812 22.00195312 C3.03706578 25.00135226 3.02062826 28.00065089 3 31 C2.67 31 2.34 31 2 31 C1.97494385 30.41508789 1.9498877 29.83017578 1.92407227 29.22753906 C1.80777038 26.56815529 1.68519933 23.90909597 1.5625 21.25 C1.50352539 19.86941406 1.50352539 19.86941406 1.44335938 18.4609375 C1.40146484 17.57148437 1.35957031 16.68203125 1.31640625 15.765625 C1.27974854 14.94868164 1.24309082 14.13173828 1.20532227 13.29003906 C1.06128384 11.01868182 1.06128384 11.01868182 0.48413086 8.93652344 C-0.25785467 5.96858134 -0.05850547 3.04228432 0 0 Z " fill="#FBC925" transform="translate(825,497)"/>
<path d="M0 0 C1.27875 0.165 2.5575 0.33 3.875 0.5 C8.9284158 1.07041736 13.92062649 1.09543708 19 1 C14.96896326 4.58420012 11.78701888 4.48940831 6.57421875 4.37109375 C4 4 4 4 1.3125 2 C0.879375 1.34 0.44625 0.68 0 0 Z " fill="#6FB051" transform="translate(815,381)"/>
<path d="M0 0 C0.66 0.33 1.32 0.66 2 1 C2 1.99 2 2.98 2 4 C6.455 3.505 6.455 3.505 11 3 C6.15584557 5.42207721 2.44453532 7 -3 7 C-3.1875 4.625 -3.1875 4.625 -3 2 C-2.01 1.34 -1.02 0.68 0 0 Z " fill="#EBCB38" transform="translate(782,439)"/>
<path d="M0 0 C0 0.99 0 1.98 0 3 C-7.92 3 -15.84 3 -24 3 C-24 2.67 -24 2.34 -24 2 C-20.56272197 1.66435098 -17.12514387 1.33187951 -13.6875 1 C-12.71103516 0.90460938 -11.73457031 0.80921875 -10.72851562 0.7109375 C-9.32182617 0.57558594 -9.32182617 0.57558594 -7.88671875 0.4375 C-7.02264404 0.35371094 -6.15856934 0.26992188 -5.26831055 0.18359375 C-3 0 -3 0 0 0 Z " fill="#FA9C11" transform="translate(723,392)"/>
<path d="M0 0 C0.33 0 0.66 0 1 0 C1.19697084 2.97880524 1.38277673 5.95764386 1.5625 8.9375 C1.61857422 9.76830078 1.67464844 10.59910156 1.73242188 11.45507812 C2.06275821 17.11484061 1.76547933 22.38081467 1 28 C0.67 28 0.34 28 0 28 C-0.71960516 18.55656618 -1.32368341 9.42869877 0 0 Z " fill="#FCC924" transform="translate(836,520)"/>
<path d="M0 0 C0.66 0.33 1.32 0.66 2 1 C2 1.66 2 2.32 2 3 C4.31 3 6.62 3 9 3 C9.33 5.64 9.66 8.28 10 11 C9.34 11 8.68 11 8 11 C7.7525 10.38125 7.505 9.7625 7.25 9.125 C5.72778828 6.53724008 4.83222025 5.94407342 2 5 C-1.16695956 4.83275263 -1.16695956 4.83275263 -4 5 C-4 4.34 -4 3.68 -4 3 C-2.68 2.67 -1.36 2.34 0 2 C0 1.34 0 0.68 0 0 Z " fill="#2E343B" transform="translate(486,507)"/>
<path d="M0 0 C-3.95705456 1.45839897 -7.69831388 0.67906093 -11.75 0.0625 C-12.79607422 -0.08735352 -12.79607422 -0.08735352 -13.86328125 -0.24023438 C-15.57651726 -0.48665873 -17.28840725 -0.74240955 -19 -1 C-19 -1.33 -19 -1.66 -19 -2 C-12.63724852 -3.50696746 -5.5371798 -3.6914532 0 0 Z " fill="#D74A35" transform="translate(870,384)"/>
<path d="M0 0 C2 1 2 1 2.61889648 2.75097656 C3.03509883 5.20713029 3.11284638 7.49319308 3.09765625 9.984375 C3.09282227 11.38623047 3.09282227 11.38623047 3.08789062 12.81640625 C3.07951172 13.78449219 3.07113281 14.75257813 3.0625 15.75 C3.05798828 16.73355469 3.05347656 17.71710937 3.04882812 18.73046875 C3.03706483 21.15370791 3.02062684 23.57682273 3 26 C2.67 26 2.34 26 2 26 C1.67 19.4 1.34 12.8 1 6 C0.34 6 -0.32 6 -1 6 C-1.625 4.125 -1.625 4.125 -2 2 C-1.34 1.34 -0.68 0.68 0 0 Z " fill="#77AF58" transform="translate(951,513)"/>
<path d="M0 0 C0.99 0.66 1.98 1.32 3 2 C2.375 4.875 2.375 4.875 1 8 C-2 9.4375 -2 9.4375 -5 10 C-5.66 9.67 -6.32 9.34 -7 9 C-7 8.01 -7 7.02 -7 6 C-5.02 5.67 -3.04 5.34 -1 5 C-0.67 3.35 -0.34 1.7 0 0 Z " fill="#384652" transform="translate(741,574)"/>
<path d="M0 0 C0 0.66 0 1.32 0 2 C-1.32 2 -2.64 2 -4 2 C-4 2.66 -4 3.32 -4 4 C-5.32 4 -6.64 4 -8 4 C-8 6.31 -8 8.62 -8 11 C-10 9 -10 9 -10.375 6.625 C-10 4 -10 4 -8.375 1.6875 C-5.39542581 -0.42956587 -3.57763189 -0.32523926 0 0 Z " fill="#343A46" transform="translate(622,508)"/>
<path d="M0 0 C0.99 0.33 1.98 0.66 3 1 C3.33 2.65 3.66 4.3 4 6 C0.04 6 -3.92 6 -8 6 C-7.67 5.01 -7.34 4.02 -7 3 C-4.36 3 -1.72 3 1 3 C0.67 2.01 0.34 1.02 0 0 Z " fill="#263346" transform="translate(517,576)"/>
<path d="M0 0 C3.68754757 0.49831724 5.60490662 1.10067643 8 4 C7.360625 4.12375 6.72125 4.2475 6.0625 4.375 C5.0415625 4.684375 5.0415625 4.684375 4 5 C3.67 5.66 3.34 6.32 3 7 C2.34 7 1.68 7 1 7 C0.67 4.69 0.34 2.38 0 0 Z " fill="#DB4836" transform="translate(911,435)"/>
<path d="M0 0 C2.57146057 2.57146057 2.80117997 4.6050417 3.625 8.125 C3.88539063 9.22070312 4.14578125 10.31640625 4.4140625 11.4453125 C4.70410156 12.70988281 4.70410156 12.70988281 5 14 C5.66 14 6.32 14 7 14 C6.67 14.99 6.34 15.98 6 17 C1.929457 11.16555503 -0.33491517 7.20067611 0 0 Z " fill="#F9C629" transform="translate(834,570)"/>
<path d="M0 0 C6.22725067 1.65391768 11.53962558 3.55759004 17 7 C17 7.33 17 7.66 17 8 C15.35 8 13.7 8 12 8 C11.67 7.34 11.34 6.68 11 6 C9.35965807 5.27095914 7.68698082 4.61344757 6 4 C1.11111111 2.22222222 1.11111111 2.22222222 0 0 Z " fill="#F8BC27" transform="translate(845,432)"/>
<path d="M0 0 C0.99 0 1.98 0 3 0 C3.06058594 0.58007812 3.12117187 1.16015625 3.18359375 1.7578125 C3.66016561 6.20092863 4.21008666 10.59905423 5 15 C1.04397828 10.14488244 -0.29212746 6.28074033 0 0 Z " fill="#D94F35" transform="translate(838,396)"/>
<path d="M0 0 C0.33 0.99 0.66 1.98 1 3 C4.3 2.67 7.6 2.34 11 2 C10.67 2.99 10.34 3.98 10 5 C6.04 5 2.08 5 -2 5 C-2 3.68 -2 2.36 -2 1 C-1.34 0.67 -0.68 0.34 0 0 Z " fill="#333842" transform="translate(456,577)"/>
<path d="M0 0 C0.33 0 0.66 0 1 0 C1 1.98 1 3.96 1 6 C0.01 6.33 -0.98 6.66 -2 7 C-2 6.34 -2 5.68 -2 5 C-3.32 5.99 -4.64 6.98 -6 8 C-7.32 7.01 -8.64 6.02 -10 5 C-9.67 4.34 -9.34 3.68 -9 3 C-6.03 3.33 -3.06 3.66 0 4 C0 2.68 0 1.36 0 0 Z " fill="#334455" transform="translate(684,542)"/>
<path d="M0 0 C3.80802445 1.4960096 5.69424557 3.66063151 8 7 C8.75 9.3125 8.75 9.3125 9 11 C8.34 11 7.68 11 7 11 C5.2734375 8.84765625 5.2734375 8.84765625 3.375 6.0625 C2.74335937 5.14597656 2.11171875 4.22945313 1.4609375 3.28515625 C0 1 0 1 0 0 Z " fill="#FAC929" transform="translate(814,482)"/>
<path d="M0 0 C5.59282842 1.36410449 8.91193811 4.15383526 13 8 C11.68 8.33 10.36 8.66 9 9 C8.67 8.01 8.34 7.02 8 6 C7.01 5.67 6.02 5.34 5 5 C5 4.34 5 3.68 5 3 C2.525 2.01 2.525 2.01 0 1 C0 0.67 0 0.34 0 0 Z " fill="#FABE27" transform="translate(862,440)"/>
<path d="M0 0 C3.63 0 7.26 0 11 0 C11 0.66 11 1.32 11 2 C5.06 2.495 5.06 2.495 -1 3 C-0.67 2.01 -0.34 1.02 0 0 Z " fill="#2C3A48" transform="translate(657,527)"/>
<path d="M0 0 C4.83256305 0.41421969 6.82679218 2.46413986 10 6 C9.67 6.66 9.34 7.32 9 8 C7.88625 7.071875 7.88625 7.071875 6.75 6.125 C4.51198812 4.39562719 2.56260013 3.13893339 0 2 C0 1.34 0 0.68 0 0 Z " fill="#F6C92B" transform="translate(816,473)"/>
<path d="M0 0 C2.3431213 0.25561323 4.67843403 0.59270772 7 1 C7.33 1.66 7.66 2.32 8 3 C7.01 3 6.02 3 5 3 C5 3.66 5 4.32 5 5 C3.02 5 1.04 5 -1 5 C-0.01 4.01 0.98 3.02 2 2 C1.34 1.34 0.68 0.68 0 0 Z " fill="#76B057" transform="translate(835,371)"/>
<path d="M0 0 C-2.31 1.65 -4.62 3.3 -7 5 C-7.66 4.34 -8.32 3.68 -9 3 C-4.94736842 -1.23684211 -4.94736842 -1.23684211 0 0 Z " fill="#72B757" transform="translate(799,368)"/>
<path d="M0 0 C1.26823485 3.65393537 0.75715321 6.49070026 0.0625 10.25 C-0.13214844 11.32765625 -0.32679688 12.4053125 -0.52734375 13.515625 C-0.68332031 14.33546875 -0.83929687 15.1553125 -1 16 C-1.33 16 -1.66 16 -2 16 C-2.05402274 13.89611431 -2.09280256 11.79183286 -2.125 9.6875 C-2.14820313 8.51574219 -2.17140625 7.34398437 -2.1953125 6.13671875 C-2 3 -2 3 0 0 Z " fill="#10223D" transform="translate(639,543)"/>
<path d="M0 0 C0.66 0 1.32 0 2 0 C2.95465783 2.16967689 3.14401212 3.56328793 2.3984375 5.82421875 C1.64129615 7.5684743 0.82390802 9.28627131 0 11 C-1.37432457 7.18243176 -0.67975039 3.92744671 0 0 Z " fill="#D74536" transform="translate(959,445)"/>
<path d="M0 0 C0.99 0 1.98 0 3 0 C3 1.32 3 2.64 3 4 C2.01 4.33 1.02 4.66 0 5 C-0.99 4.34 -1.98 3.68 -3 3 C-3 3.66 -3 4.32 -3 5 C-3.66 4.67 -4.32 4.34 -5 4 C-5 3.34 -5 2.68 -5 2 C-3.35 2 -1.7 2 0 2 C0 1.34 0 0.68 0 0 Z " fill="#2C3E50" transform="translate(704,539)"/>
<path d="M0 0 C0.78375 0.04125 1.5675 0.0825 2.375 0.125 C1.735625 0.393125 1.09625 0.66125 0.4375 0.9375 C-1.95631686 2.01167752 -1.95631686 2.01167752 -2.625 5.125 C-3.285 5.125 -3.945 5.125 -4.625 5.125 C-4.625 6.115 -4.625 7.105 -4.625 8.125 C-5.615 7.795 -6.605 7.465 -7.625 7.125 C-3.5992268 0.17139175 -3.5992268 0.17139175 0 0 Z " fill="#ECD041" transform="translate(813.625,471.875)"/>
<path d="M0 0 C2.64 0.66 5.28 1.32 8 2 C8 2.66 8 3.32 8 4 C5.69 4 3.38 4 1 4 C0.67 2.68 0.34 1.36 0 0 Z " fill="#D94E36" transform="translate(884,573)"/>
<path d="M0 0 C0.99 0 1.98 0 3 0 C4.20272819 2.40545638 4.10071472 3.94996953 4.0625 6.625 C4.05347656 7.44226563 4.04445313 8.25953125 4.03515625 9.1015625 C4.02355469 9.72804688 4.01195312 10.35453125 4 11 C3.67 11 3.34 11 3 11 C2.67 8.36 2.34 5.72 2 3 C1.01 3.33 0.02 3.66 -1 4 C-0.67 2.68 -0.34 1.36 0 0 Z " fill="#4EB047" transform="translate(949,517)"/>
<path d="M0 0 C0.66 0.33 1.32 0.66 2 1 C1.49396008 3.16874252 1.00016187 4.99967627 0 7 C-2.97 6.505 -2.97 6.505 -6 6 C-3 4 -3 4 0 4 C-0.33 3.01 -0.66 2.02 -1 1 C-0.67 0.67 -0.34 0.34 0 0 Z " fill="#99BE53" transform="translate(835,463)"/>
<path d="M0 0 C-0.33 0.66 -0.66 1.32 -1 2 C-2.65 1.67 -4.3 1.34 -6 1 C-6 1.66 -6 2.32 -6 3 C-6.99 2.67 -7.98 2.34 -9 2 C-9 1.34 -9 0.68 -9 0 C-5.67465243 -1.10844919 -3.37817425 -0.84454356 0 0 Z " fill="#78BC58" transform="translate(809,378)"/>
<path d="M0 0 C2.0625 1.75 2.0625 1.75 4 4 C3.75 6.25 3.75 6.25 3 8 C2.34 7.67 1.68 7.34 1 7 C0.59270772 4.67843403 0.25561323 2.3431213 0 0 Z " fill="#FBC927" transform="translate(829,555)"/>
<path d="M0 0 C1.03864166 3.11592499 1.09036928 4.0262656 0 7 C-0.99 7.495 -0.99 7.495 -2 8 C-2.66 7.34 -3.32 6.68 -4 6 C-2.68 4.02 -1.36 2.04 0 0 Z " fill="#DB4C33" transform="translate(899,548)"/>
<path d="M0 0 C0.66 1.32 1.32 2.64 2 4 C1.54625 4.433125 1.0925 4.86625 0.625 5.3125 C-1.20024334 7.10798342 -1.20024334 7.10798342 -3 10 C-2.25 3.375 -2.25 3.375 0 0 Z " fill="#293749" transform="translate(539,510)"/>
<path d="M0 0 C0.66 0.33 1.32 0.66 2 1 C2.40729228 3.32156597 2.74438677 5.6568787 3 8 C2.34 8 1.68 8 1 8 C0.71125 7.38125 0.4225 6.7625 0.125 6.125 C-0.93720042 3.86674235 -0.93720042 3.86674235 -3 2 C-2.01 2 -1.02 2 0 2 C0 1.34 0 0.68 0 0 Z " fill="#2F3948" transform="translate(493,510)"/>
<path d="M0 0 C0.99 0.99 1.98 1.98 3 3 C2.67 3.99 2.34 4.98 2 6 C-0.97 5.505 -0.97 5.505 -4 5 C-3.01 4.34 -2.02 3.68 -1 3 C-0.67 2.01 -0.34 1.02 0 0 Z " fill="#E55235" transform="translate(871,432)"/>
<path d="M0 0 C0.66 0.33 1.32 0.66 2 1 C2 2.65 2 4.3 2 6 C0.02 6.99 0.02 6.99 -2 8 C-1.34 5.36 -0.68 2.72 0 0 Z " fill="#E04A35" transform="translate(910,522)"/>
<path d="M0 0 C2.31 0 4.62 0 7 0 C7 0.33 7 0.66 7 1 C4.69 1 2.38 1 0 1 C0 0.67 0 0.34 0 0 Z " fill="#FE990C" transform="translate(339,438)"/>
<path d="M0 0 C1.98 0 3.96 0 6 0 C6 0.33 6 0.66 6 1 C4.02 1 2.04 1 0 1 C0 0.67 0 0.34 0 0 Z " fill="#FE9C0E" transform="translate(216,438)"/>
<path d="M0 0 C0.99 0.33 1.98 0.66 3 1 C2.34 1.66 1.68 2.32 1 3 C0.67 2.01 0.34 1.02 0 0 Z " fill="#A6B26E" transform="translate(937,563)"/>
<path d="M0 0 C1.65 0 3.3 0 5 0 C5 0.33 5 0.66 5 1 C3.35 1 1.7 1 0 1 C0 0.67 0 0.34 0 0 Z " fill="#FD9B0E" transform="translate(589,438)"/>
<path d="M0 0 C4 1 4 1 4 1 Z " fill="#FE9D0D" transform="translate(128,438)"/>
<path d="M0 0 C3 1 3 1 3 1 Z " fill="#3F4D59" transform="translate(575,583)"/>
<path d="M0 0 C0.66 0.66 1.32 1.32 2 2 C1.34 2 0.68 2 0 2 C0 1.34 0 0.68 0 0 Z " fill="#3F4B59" transform="translate(568,582)"/>
<path d="M0 0 C3 1 3 1 3 1 Z " fill="#414850" transform="translate(481,566)"/>
<path d="M0 0 C0.99 0.495 0.99 0.495 2 1 C1.01 1.495 1.01 1.495 0 2 C0 1.34 0 0.68 0 0 Z " fill="#5D625B" transform="translate(702,528)"/>
<path d="M0 0 C3 1 3 1 3 1 Z " fill="#BDCC5B" transform="translate(804,448)"/>
<path d="M0 0 C3 1 3 1 3 1 Z " fill="#FC9B0D" transform="translate(579,438)"/>
<path d="M0 0 C3 1 3 1 3 1 Z " fill="#FF9B0D" transform="translate(123,438)"/>
<path d="M0 0 C3 1 3 1 3 1 Z " fill="#FE9A0B" transform="translate(114,438)"/>
<path d="" fill="#FE9D0D" transform="translate(0,0)"/>
<path d="" fill="#49535D" transform="translate(0,0)"/>
<path d="M0 0 C2 1 2 1 2 1 Z " fill="#3E4954" transform="translate(548,580)"/>
<path d="M0 0 C2 1 2 1 2 1 Z " fill="#3B4959" transform="translate(610,579)"/>
<path d="" fill="#E69B4F" transform="translate(0,0)"/>
<path d="" fill="#3A4958" transform="translate(0,0)"/>
<path d="" fill="#374252" transform="translate(0,0)"/>
<path d="M0 0 C2 1 2 1 2 1 Z " fill="#374554" transform="translate(720,559)"/>
<path d="" fill="#3E4B5B" transform="translate(0,0)"/>
<path d="M0 0 C2 1 2 1 2 1 Z " fill="#344154" transform="translate(595,540)"/>
<path d="" fill="#866E48" transform="translate(0,0)"/>
<path d="M0 0 C2 1 2 1 2 1 Z " fill="#8B7147" transform="translate(540,505)"/>
<path d="" fill="#F2991E" transform="translate(0,0)"/>
<path d="M0 0 C2 1 2 1 2 1 Z " fill="#FD9C11" transform="translate(341,483)"/>
<path d="" fill="#E8833D" transform="translate(0,0)"/>
<path d="" fill="#DDCE57" transform="translate(0,0)"/>
<path d="M0 0 C2 1 2 1 2 1 Z " fill="#FD9E10" transform="translate(480,464)"/>
<path d="M0 0 C2 1 2 1 2 1 Z " fill="#AEC962" transform="translate(804,463)"/>
<path d="" fill="#F99E13" transform="translate(0,0)"/>
<path d="" fill="#E0D051" transform="translate(0,0)"/>
<path d="M0 0 C2 1 2 1 2 1 Z " fill="#FF9C0E" transform="translate(144,443)"/>
<path d="M0 0 C2 1 2 1 2 1 Z " fill="#FD9A0E" transform="translate(605,438)"/>
<path d="M0 0 C2 1 2 1 2 1 Z " fill="#FF9C0D" transform="translate(355,438)"/>
<path d="M0 0 C2 1 2 1 2 1 Z " fill="#FE9E10" transform="translate(258,438)"/>
<path d="M0 0 C2 1 2 1 2 1 Z " fill="#FE9B0E" transform="translate(227,438)"/>
<path d="M0 0 C2 1 2 1 2 1 Z " fill="#FF9D0D" transform="translate(207,438)"/>
<path d="M0 0 C2 1 2 1 2 1 Z " fill="#FE9C0E" transform="translate(203,438)"/>
<path d="M0 0 C2 1 2 1 2 1 Z " fill="#FE9C0C" transform="translate(120,438)"/>
<path d="M0 0 C2 1 2 1 2 1 Z " fill="#FD9C0D" transform="translate(107,438)"/>
<path d="M0 0 C2 1 2 1 2 1 Z " fill="#FE9C0D" transform="translate(103,438)"/>
<path d="" fill="#FE9B0C" transform="translate(0,0)"/>
<path d="" fill="#FD9A0D" transform="translate(0,0)"/>
<path d="" fill="#FD9E0D" transform="translate(0,0)"/>
<path d="M0 0 C2 1 2 1 2 1 Z " fill="#FFA213" transform="translate(436,399)"/>
<path d="" fill="#FB9E12" transform="translate(0,0)"/>
<path d="M0 0 C2 1 2 1 2 1 Z " fill="#FA9F14" transform="translate(449,377)"/>
<path d="" fill="#F79C14" transform="translate(0,0)"/>
<path d="M0 0 C2 1 2 1 2 1 Z " fill="#94B862" transform="translate(821,371)"/>
<path d="" fill="#595855" transform="translate(0,0)"/>
<path d="" fill="#595B55" transform="translate(0,0)"/>
<path d="" fill="#595A56" transform="translate(0,0)"/>
<path d="" fill="#555755" transform="translate(0,0)"/>
<path d="" fill="#5B5A58" transform="translate(0,0)"/>
<path d="" fill="#5B5C58" transform="translate(0,0)"/>
<path d="" fill="#5D5F59" transform="translate(0,0)"/>
<path d="" fill="#5C5C5B" transform="translate(0,0)"/>
<path d="" fill="#60615C" transform="translate(0,0)"/>
<path d="" fill="#62625F" transform="translate(0,0)"/>
<path d="" fill="#656464" transform="translate(0,0)"/>
<path d="" fill="#666763" transform="translate(0,0)"/>
<path d="" fill="#706F6B" transform="translate(0,0)"/>
<path d="" fill="#6E6E6B" transform="translate(0,0)"/>
<path d="" fill="#747571" transform="translate(0,0)"/>
<path d="" fill="#7B7B73" transform="translate(0,0)"/>
<path d="" fill="#7A7569" transform="translate(0,0)"/>
<path d="" fill="#E5C257" transform="translate(0,0)"/>
<path d="" fill="#E9C056" transform="translate(0,0)"/>
<path d="" fill="#E09729" transform="translate(0,0)"/>
<path d="" fill="#E0982D" transform="translate(0,0)"/>
<path d="" fill="#636660" transform="translate(0,0)"/>
<path d="" fill="#424E58" transform="translate(0,0)"/>
<path d="" fill="#3C4C57" transform="translate(0,0)"/>
<path d="" fill="#414C56" transform="translate(0,0)"/>
<path d="" fill="#3C4D56" transform="translate(0,0)"/>
<path d="" fill="#424B57" transform="translate(0,0)"/>
<path d="" fill="#404F5A" transform="translate(0,0)"/>
<path d="" fill="#3D4A58" transform="translate(0,0)"/>
<path d="" fill="#3D4B57" transform="translate(0,0)"/>
<path d="" fill="#424957" transform="translate(0,0)"/>
<path d="" fill="#4D5656" transform="translate(0,0)"/>
<path d="" fill="#E59B29" transform="translate(0,0)"/>
<path d="" fill="#45515A" transform="translate(0,0)"/>
<path d="" fill="#3F4D56" transform="translate(0,0)"/>
<path d="" fill="#947748" transform="translate(0,0)"/>
<path d="" fill="#9E7D46" transform="translate(0,0)"/>
<path d="" fill="#475359" transform="translate(0,0)"/>
<path d="" fill="#404A58" transform="translate(0,0)"/>
<path d="" fill="#3A4857" transform="translate(0,0)"/>
<path d="" fill="#3B4B55" transform="translate(0,0)"/>
<path d="" fill="#3D4A57" transform="translate(0,0)"/>
<path d="" fill="#4C5353" transform="translate(0,0)"/>
<path d="" fill="#F5CC52" transform="translate(0,0)"/>
<path d="" fill="#404B5A" transform="translate(0,0)"/>
<path d="" fill="#494F52" transform="translate(0,0)"/>
<path d="" fill="#3A4552" transform="translate(0,0)"/>
<path d="" fill="#F0BB4D" transform="translate(0,0)"/>
<path d="" fill="#F0CD4E" transform="translate(0,0)"/>
<path d="" fill="#374353" transform="translate(0,0)"/>
<path d="" fill="#384553" transform="translate(0,0)"/>
<path d="" fill="#3C4B59" transform="translate(0,0)"/>
<path d="" fill="#EF9E23" transform="translate(0,0)"/>
<path d="" fill="#D68857" transform="translate(0,0)"/>
<path d="" fill="#394A59" transform="translate(0,0)"/>
<path d="" fill="#314156" transform="translate(0,0)"/>
<path d="" fill="#FACF4B" transform="translate(0,0)"/>
<path d="" fill="#656964" transform="translate(0,0)"/>
<path d="" fill="#344355" transform="translate(0,0)"/>
<path d="" fill="#866D44" transform="translate(0,0)"/>
<path d="" fill="#364453" transform="translate(0,0)"/>
<path d="" fill="#F19C20" transform="translate(0,0)"/>
<path d="" fill="#D98755" transform="translate(0,0)"/>
<path d="" fill="#394856" transform="translate(0,0)"/>
<path d="" fill="#786446" transform="translate(0,0)"/>
<path d="" fill="#E29625" transform="translate(0,0)"/>
<path d="" fill="#303E54" transform="translate(0,0)"/>
<path d="" fill="#3D4551" transform="translate(0,0)"/>
<path d="" fill="#3D4853" transform="translate(0,0)"/>
<path d="" fill="#494C50" transform="translate(0,0)"/>
<path d="" fill="#344454" transform="translate(0,0)"/>
<path d="" fill="#5A6464" transform="translate(0,0)"/>
<path d="" fill="#344155" transform="translate(0,0)"/>
<path d="" fill="#2F3F53" transform="translate(0,0)"/>
<path d="" fill="#776546" transform="translate(0,0)"/>
<path d="" fill="#A0B56F" transform="translate(0,0)"/>
<path d="" fill="#384756" transform="translate(0,0)"/>
<path d="" fill="#EE9C4C" transform="translate(0,0)"/>
<path d="" fill="#2F4054" transform="translate(0,0)"/>
<path d="" fill="#776847" transform="translate(0,0)"/>
<path d="" fill="#354155" transform="translate(0,0)"/>
<path d="" fill="#2D3C51" transform="translate(0,0)"/>
<path d="" fill="#F69F1E" transform="translate(0,0)"/>
<path d="" fill="#334353" transform="translate(0,0)"/>
<path d="" fill="#EED052" transform="translate(0,0)"/>
<path d="" fill="#314253" transform="translate(0,0)"/>
<path d="" fill="#2F3E54" transform="translate(0,0)"/>
<path d="" fill="#374755" transform="translate(0,0)"/>
<path d="" fill="#434B54" transform="translate(0,0)"/>
<path d="" fill="#3C4651" transform="translate(0,0)"/>
<path d="" fill="#334456" transform="translate(0,0)"/>
<path d="" fill="#324253" transform="translate(0,0)"/>
<path d="" fill="#2F4052" transform="translate(0,0)"/>
<path d="" fill="#354658" transform="translate(0,0)"/>
<path d="" fill="#F89F1B" transform="translate(0,0)"/>
<path d="" fill="#404B58" transform="translate(0,0)"/>
<path d="" fill="#E48B46" transform="translate(0,0)"/>
<path d="" fill="#3C4B59" transform="translate(0,0)"/>
<path d="" fill="#394857" transform="translate(0,0)"/>
<path d="" fill="#404D5A" transform="translate(0,0)"/>
<path d="" fill="#364455" transform="translate(0,0)"/>
<path d="" fill="#756147" transform="translate(0,0)"/>
<path d="" fill="#CD8953" transform="translate(0,0)"/>
<path d="" fill="#F8D44A" transform="translate(0,0)"/>
<path d="" fill="#334351" transform="translate(0,0)"/>
<path d="" fill="#F3B53D" transform="translate(0,0)"/>
<path d="" fill="#394756" transform="translate(0,0)"/>
<path d="" fill="#A9A564" transform="translate(0,0)"/>
<path d="" fill="#324054" transform="translate(0,0)"/>
<path d="" fill="#F89F18" transform="translate(0,0)"/>
<path d="" fill="#344153" transform="translate(0,0)"/>
<path d="" fill="#354453" transform="translate(0,0)"/>
<path d="" fill="#313E51" transform="translate(0,0)"/>
<path d="" fill="#344151" transform="translate(0,0)"/>
<path d="" fill="#AE9C66" transform="translate(0,0)"/>
<path d="" fill="#F9CA4A" transform="translate(0,0)"/>
<path d="" fill="#3E4C58" transform="translate(0,0)"/>
<path d="" fill="#334050" transform="translate(0,0)"/>
<path d="" fill="#374452" transform="translate(0,0)"/>
<path d="" fill="#7F6849" transform="translate(0,0)"/>
<path d="" fill="#F4B447" transform="translate(0,0)"/>
<path d="" fill="#E28A47" transform="translate(0,0)"/>
<path d="" fill="#3D4956" transform="translate(0,0)"/>
<path d="" fill="#434B51" transform="translate(0,0)"/>
<path d="" fill="#404953" transform="translate(0,0)"/>
<path d="" fill="#FC9D15" transform="translate(0,0)"/>
<path d="" fill="#F5AC47" transform="translate(0,0)"/>
<path d="" fill="#6E7062" transform="translate(0,0)"/>
<path d="" fill="#6A6F61" transform="translate(0,0)"/>
<path d="" fill="#595C58" transform="translate(0,0)"/>
<path d="" fill="#5C6059" transform="translate(0,0)"/>
<path d="" fill="#404951" transform="translate(0,0)"/>
<path d="" fill="#4C4E4F" transform="translate(0,0)"/>
<path d="" fill="#7F6845" transform="translate(0,0)"/>
<path d="" fill="#FACD48" transform="translate(0,0)"/>
<path d="" fill="#6E7262" transform="translate(0,0)"/>
<path d="" fill="#5E5B51" transform="translate(0,0)"/>
<path d="" fill="#A69F65" transform="translate(0,0)"/>
<path d="" fill="#535350" transform="translate(0,0)"/>
<path d="" fill="#A1A160" transform="translate(0,0)"/>
<path d="" fill="#A99B62" transform="translate(0,0)"/>
<path d="" fill="#AE9660" transform="translate(0,0)"/>
<path d="" fill="#70624F" transform="translate(0,0)"/>
<path d="" fill="#A2B26C" transform="translate(0,0)"/>
<path d="" fill="#A2A361" transform="translate(0,0)"/>
<path d="" fill="#856D4B" transform="translate(0,0)"/>
<path d="" fill="#655D53" transform="translate(0,0)"/>
<path d="" fill="#A7AF6E" transform="translate(0,0)"/>
<path d="" fill="#75664F" transform="translate(0,0)"/>
<path d="" fill="#76674D" transform="translate(0,0)"/>
<path d="" fill="#7C6B4E" transform="translate(0,0)"/>
<path d="" fill="#A7A264" transform="translate(0,0)"/>
<path d="" fill="#74644C" transform="translate(0,0)"/>
<path d="" fill="#79674A" transform="translate(0,0)"/>
<path d="" fill="#836C49" transform="translate(0,0)"/>
<path d="" fill="#A97E3E" transform="translate(0,0)"/>
<path d="" fill="#95784A" transform="translate(0,0)"/>
<path d="" fill="#896F47" transform="translate(0,0)"/>
<path d="" fill="#9C784A" transform="translate(0,0)"/>
<path d="" fill="#8B6E47" transform="translate(0,0)"/>
<path d="" fill="#F9D046" transform="translate(0,0)"/>
<path d="" fill="#F89A13" transform="translate(0,0)"/>
<path d="" fill="#F8CC46" transform="translate(0,0)"/>
<path d="" fill="#FB9D13" transform="translate(0,0)"/>
<path d="" fill="#FE9F12" transform="translate(0,0)"/>
<path d="" fill="#F7CB44" transform="translate(0,0)"/>
<path d="" fill="#EB971D" transform="translate(0,0)"/>
<path d="" fill="#F19D1C" transform="translate(0,0)"/>
<path d="" fill="#E9CE52" transform="translate(0,0)"/>
<path d="" fill="#EB951D" transform="translate(0,0)"/>
<path d="" fill="#FD9C13" transform="translate(0,0)"/>
<path d="" fill="#EC9821" transform="translate(0,0)"/>
<path d="" fill="#EC951F" transform="translate(0,0)"/>
<path d="" fill="#FF9E11" transform="translate(0,0)"/>
<path d="" fill="#FE9C11" transform="translate(0,0)"/>
<path d="" fill="#FC9E14" transform="translate(0,0)"/>
<path d="" fill="#FC9D13" transform="translate(0,0)"/>
<path d="" fill="#FD9D12" transform="translate(0,0)"/>
<path d="" fill="#FC9D13" transform="translate(0,0)"/>
<path d="" fill="#F79C19" transform="translate(0,0)"/>
<path d="" fill="#EB981F" transform="translate(0,0)"/>
<path d="" fill="#E4CE51" transform="translate(0,0)"/>
<path d="" fill="#E98445" transform="translate(0,0)"/>
<path d="" fill="#F89910" transform="translate(0,0)"/>
<path d="" fill="#F19D15" transform="translate(0,0)"/>
<path d="" fill="#D46B4C" transform="translate(0,0)"/>
<path d="" fill="#E06045" transform="translate(0,0)"/>
<path d="" fill="#F8CC46" transform="translate(0,0)"/>
<path d="" fill="#E77D40" transform="translate(0,0)"/>
<path d="" fill="#E58342" transform="translate(0,0)"/>
<path d="" fill="#F69B18" transform="translate(0,0)"/>
<path d="" fill="#F39719" transform="translate(0,0)"/>
<path d="" fill="#DC5B41" transform="translate(0,0)"/>
<path d="" fill="#F39A14" transform="translate(0,0)"/>
<path d="" fill="#F7CB44" transform="translate(0,0)"/>
<path d="" fill="#DACF54" transform="translate(0,0)"/>
<path d="" fill="#D7CD52" transform="translate(0,0)"/>
<path d="" fill="#D0CF53" transform="translate(0,0)"/>
<path d="" fill="#96C363" transform="translate(0,0)"/>
<path d="" fill="#8EBF62" transform="translate(0,0)"/>
<path d="" fill="#F6AE44" transform="translate(0,0)"/>
<path d="" fill="#F79D1A" transform="translate(0,0)"/>
<path d="" fill="#DCCE52" transform="translate(0,0)"/>
<path d="" fill="#F99C17" transform="translate(0,0)"/>
<path d="" fill="#DB5640" transform="translate(0,0)"/>
<path d="" fill="#FC9B0E" transform="translate(0,0)"/>
<path d="" fill="#DE5D43" transform="translate(0,0)"/>
<path d="" fill="#DB563F" transform="translate(0,0)"/>
<path d="" fill="#F7C940" transform="translate(0,0)"/>
<path d="" fill="#FB9D11" transform="translate(0,0)"/>
<path d="" fill="#F99C18" transform="translate(0,0)"/>
<path d="" fill="#FE9E0F" transform="translate(0,0)"/>
<path d="" fill="#FC9E11" transform="translate(0,0)"/>
<path d="" fill="#FF9F13" transform="translate(0,0)"/>
<path d="" fill="#D85940" transform="translate(0,0)"/>
<path d="" fill="#FD9E10" transform="translate(0,0)"/>
<path d="" fill="#FFA111" transform="translate(0,0)"/>
<path d="" fill="#FE9E11" transform="translate(0,0)"/>
<path d="" fill="#E67E3E" transform="translate(0,0)"/>
<path d="" fill="#D8CD57" transform="translate(0,0)"/>
<path d="" fill="#97C35F" transform="translate(0,0)"/>
<path d="" fill="#E88041" transform="translate(0,0)"/>
<path d="" fill="#D4CF55" transform="translate(0,0)"/>
<path d="" fill="#BCCC60" transform="translate(0,0)"/>
<path d="" fill="#8FC65F" transform="translate(0,0)"/>
<path d="" fill="#99C05C" transform="translate(0,0)"/>
<path d="" fill="#BDCF64" transform="translate(0,0)"/>
<path d="" fill="#BBCE60" transform="translate(0,0)"/>
<path d="" fill="#F0CA47" transform="translate(0,0)"/>
<path d="" fill="#FF9B0E" transform="translate(0,0)"/>
<path d="" fill="#95C05C" transform="translate(0,0)"/>
<path d="" fill="#FD9D0E" transform="translate(0,0)"/>
<path d="" fill="#FF9B0D" transform="translate(0,0)"/>
<path d="" fill="#D4CA59" transform="translate(0,0)"/>
<path d="" fill="#FF9D0E" transform="translate(0,0)"/>
<path d="" fill="#D96446" transform="translate(0,0)"/>
<path d="" fill="#FF9F10" transform="translate(0,0)"/>
<path d="" fill="#FF9E10" transform="translate(0,0)"/>
<path d="" fill="#EACF4E" transform="translate(0,0)"/>
<path d="" fill="#DA6244" transform="translate(0,0)"/>
<path d="" fill="#FF9E0E" transform="translate(0,0)"/>
<path d="" fill="#FF9B0B" transform="translate(0,0)"/>
<path d="" fill="#FF9F0E" transform="translate(0,0)"/>
<path d="" fill="#EF9044" transform="translate(0,0)"/>
<path d="" fill="#F4AC41" transform="translate(0,0)"/>
<path d="" fill="#FF9D0F" transform="translate(0,0)"/>
<path d="" fill="#FC9C11" transform="translate(0,0)"/>
<path d="" fill="#FF9B12" transform="translate(0,0)"/>
<path d="" fill="#FF9D0F" transform="translate(0,0)"/>
<path d="" fill="#FD9B0E" transform="translate(0,0)"/>
<path d="" fill="#FB9C0F" transform="translate(0,0)"/>
<path d="" fill="#FF9C0F" transform="translate(0,0)"/>
<path d="" fill="#FF9E10" transform="translate(0,0)"/>
<path d="" fill="#FF9C0F" transform="translate(0,0)"/>
<path d="" fill="#FE9B0B" transform="translate(0,0)"/>
<path d="" fill="#FF9B0E" transform="translate(0,0)"/>
<path d="" fill="#FF9C0E" transform="translate(0,0)"/>
<path d="" fill="#FF9B0E" transform="translate(0,0)"/>
<path d="" fill="#FE9E0E" transform="translate(0,0)"/>
<path d="" fill="#FF9D0F" transform="translate(0,0)"/>
<path d="" fill="#FE9D0D" transform="translate(0,0)"/>
<path d="" fill="#FF9E10" transform="translate(0,0)"/>
<path d="" fill="#FF9C0D" transform="translate(0,0)"/>
<path d="" fill="#FF9F0E" transform="translate(0,0)"/>
<path d="" fill="#FF9F0E" transform="translate(0,0)"/>
<path d="" fill="#FE9D10" transform="translate(0,0)"/>
<path d="" fill="#FE9F10" transform="translate(0,0)"/>
<path d="" fill="#FEA111" transform="translate(0,0)"/>
<path d="" fill="#FF9C0C" transform="translate(0,0)"/>
<path d="" fill="#FF9C0F" transform="translate(0,0)"/>
<path d="" fill="#DA6045" transform="translate(0,0)"/>
<path d="" fill="#E67440" transform="translate(0,0)"/>
<path d="" fill="#EA9C3E" transform="translate(0,0)"/>
<path d="" fill="#FF9D10" transform="translate(0,0)"/>
<path d="" fill="#FFA010" transform="translate(0,0)"/>
<path d="" fill="#DA5C46" transform="translate(0,0)"/>
<path d="" fill="#FE9E0F" transform="translate(0,0)"/>
<path d="" fill="#FE9D12" transform="translate(0,0)"/>
<path d="" fill="#D8D156" transform="translate(0,0)"/>
<path d="" fill="#FF9C0A" transform="translate(0,0)"/>
<path d="" fill="#FD9D0F" transform="translate(0,0)"/>
<path d="" fill="#FD9B0E" transform="translate(0,0)"/>
<path d="" fill="#8FC761" transform="translate(0,0)"/>
<path d="" fill="#97C15B" transform="translate(0,0)"/>
<path d="" fill="#FF9C0F" transform="translate(0,0)"/>
<path d="" fill="#FF9C11" transform="translate(0,0)"/>
<path d="" fill="#EDBF49" transform="translate(0,0)"/>
<path d="" fill="#EDC34A" transform="translate(0,0)"/>
<path d="" fill="#E9D151" transform="translate(0,0)"/>
<path d="" fill="#FF9D0E" transform="translate(0,0)"/>
<path d="" fill="#FF9C0C" transform="translate(0,0)"/>
<path d="" fill="#E48A47" transform="translate(0,0)"/>
<path d="" fill="#FE9C0E" transform="translate(0,0)"/>
<path d="" fill="#FE9D0F" transform="translate(0,0)"/>
<path d="" fill="#FB9C0F" transform="translate(0,0)"/>
<path d="" fill="#FF9D11" transform="translate(0,0)"/>
<path d="" fill="#FF9C11" transform="translate(0,0)"/>
<path d="" fill="#FD9E11" transform="translate(0,0)"/>
<path d="" fill="#FFA012" transform="translate(0,0)"/>
<path d="" fill="#FD9E10" transform="translate(0,0)"/>
<path d="" fill="#FE9B0D" transform="translate(0,0)"/>
<path d="" fill="#E06242" transform="translate(0,0)"/>
<path d="" fill="#FE9C0D" transform="translate(0,0)"/>
<path d="" fill="#DC644A" transform="translate(0,0)"/>
<path d="" fill="#E05F40" transform="translate(0,0)"/>
<path d="" fill="#E35F40" transform="translate(0,0)"/>
<path d="" fill="#E05F43" transform="translate(0,0)"/>
<path d="" fill="#D98F48" transform="translate(0,0)"/>
<path d="" fill="#FD9D11" transform="translate(0,0)"/>
<path d="" fill="#98C761" transform="translate(0,0)"/>
<path d="" fill="#D56A4F" transform="translate(0,0)"/>
<path d="" fill="#DF6444" transform="translate(0,0)"/>
<path d="" fill="#FF9F11" transform="translate(0,0)"/>
<path d="" fill="#FF9F12" transform="translate(0,0)"/>
<path d="" fill="#FEA112" transform="translate(0,0)"/>
<path d="" fill="#FC9E11" transform="translate(0,0)"/>
<path d="" fill="#FEA013" transform="translate(0,0)"/>
<path d="" fill="#FD9E0F" transform="translate(0,0)"/>
<path d="" fill="#FE9D0F" transform="translate(0,0)"/>
<path d="" fill="#FE9C11" transform="translate(0,0)"/>
<path d="" fill="#FF9F12" transform="translate(0,0)"/>
<path d="" fill="#FF9B12" transform="translate(0,0)"/>
<path d="" fill="#F6A61F" transform="translate(0,0)"/>
<path d="" fill="#FFA012" transform="translate(0,0)"/>
<path d="" fill="#FF9B10" transform="translate(0,0)"/>
<path d="" fill="#FF9D12" transform="translate(0,0)"/>
<path d="" fill="#FF9E12" transform="translate(0,0)"/>
<path d="" fill="#FFA010" transform="translate(0,0)"/>
<path d="" fill="#FF9D10" transform="translate(0,0)"/>
<path d="" fill="#FF9E0C" transform="translate(0,0)"/>
<path d="" fill="#FF9E0C" transform="translate(0,0)"/>
<path d="" fill="#FF9D12" transform="translate(0,0)"/>
<path d="" fill="#FE9C11" transform="translate(0,0)"/>
<path d="" fill="#FE9F12" transform="translate(0,0)"/>
<path d="" fill="#FC9C0D" transform="translate(0,0)"/>
<path d="" fill="#9FC161" transform="translate(0,0)"/>
<path d="" fill="#FE9F11" transform="translate(0,0)"/>
<path d="" fill="#D47252" transform="translate(0,0)"/>
<path d="" fill="#FB9F10" transform="translate(0,0)"/>
<path d="" fill="#FB9E10" transform="translate(0,0)"/>
<path d="" fill="#D17652" transform="translate(0,0)"/>
<path d="" fill="#92BE61" transform="translate(0,0)"/>
<path d="" fill="#F79D15" transform="translate(0,0)"/>
<path d="" fill="#C3935C" transform="translate(0,0)"/>
<path d="" fill="#95C361" transform="translate(0,0)"/>
<path d="" fill="#BA985C" transform="translate(0,0)"/>
<path d="" fill="#91C263" transform="translate(0,0)"/>
<path d="" fill="#F89E16" transform="translate(0,0)"/>
<path d="" fill="#F79F19" transform="translate(0,0)"/>
<path d="" fill="#F79E15" transform="translate(0,0)"/>
<path d="" fill="#FCA013" transform="translate(0,0)"/>
<path d="" fill="#F89E16" transform="translate(0,0)"/>
<path d="" fill="#A9A062" transform="translate(0,0)"/>
<path d="" fill="#F7A218" transform="translate(0,0)"/>
<path d="" fill="#FA9D13" transform="translate(0,0)"/>
<path d="" fill="#FB9E12" transform="translate(0,0)"/>
<path d="" fill="#FA9E12" transform="translate(0,0)"/>
<path d="" fill="#A2A960" transform="translate(0,0)"/>
<path d="" fill="#90BF63" transform="translate(0,0)"/>
<path d="" fill="#9B8170" transform="translate(0,0)"/>
<path d="" fill="#96846D" transform="translate(0,0)"/>
<path d="" fill="#7C7B7E" transform="translate(0,0)"/>
</svg>
